<svg xmlns="http://www.w3.org/2000/svg" xmlns:xlink="http://www.w3.org/1999/xlink" width="486" zoomAndPan="magnify" viewBox="0 0 364.5 121.500001" height="162" preserveAspectRatio="xMidYMid meet" version="1.2"><defs><clipPath id="e54ba052ab"><path d="M 0.496094 0 L 363.503906 0 L 363.503906 121.003906 L 0.496094 121.003906 Z M 0.496094 0 "/></clipPath><clipPath id="cdd0e9eebb"><path d="M 0.496094 0 L 363.503906 0 L 363.503906 121.003906 L 0.496094 121.003906 Z M 0.496094 0 "/></clipPath><clipPath id="15cdc14b41"><path d="M 36.351562 0 L 327.652344 0 C 337.160156 0 346.28125 3.777344 353.003906 10.5 C 359.726562 17.222656 363.503906 26.34375 363.503906 35.851562 L 363.503906 85.148438 C 363.503906 94.660156 359.726562 103.777344 353.003906 110.5 C 346.28125 117.226562 337.160156 121.003906 327.652344 121.003906 L 36.351562 121.003906 C 26.839844 121.003906 17.722656 117.226562 11 110.5 C 4.273438 103.777344 0.496094 94.660156 0.496094 85.148438 L 0.496094 35.851562 C 0.496094 26.34375 4.273438 17.222656 11 10.5 C 17.722656 3.777344 26.839844 0 36.351562 0 Z M 36.351562 0 "/></clipPath></defs><g id="1d230cc987"><g clip-rule="nonzero" clip-path="url(#e54ba052ab)"><path style=" stroke:none;fill-rule:nonzero;fill:#ffffff;fill-opacity:1;" d="M 0.496094 0 L 363.503906 0 L 363.503906 121.003906 L 0.496094 121.003906 Z M 0.496094 0 "/><path style=" stroke:none;fill-rule:nonzero;fill:#ffffff;fill-opacity:1;" d="M 0.496094 0 L 363.503906 0 L 363.503906 121.003906 L 0.496094 121.003906 Z M 0.496094 0 "/></g><g clip-rule="nonzero" clip-path="url(#cdd0e9eebb)"><g clip-rule="nonzero" clip-path="url(#15cdc14b41)"><path style=" stroke:none;fill-rule:nonzero;fill:#004aad;fill-opacity:1;" d="M 0.496094 0 L 363.503906 0 L 363.503906 121.003906 L 0.496094 121.003906 Z M 0.496094 0 "/><path style="fill:none;stroke-width:12;stroke-linecap:butt;stroke-linejoin:miter;stroke:#3dbdec;stroke-opacity:1;stroke-miterlimit:4;" d="M 48.001547 -0.00000859786 L 438.00096 -0.00000859786 C 450.730213 -0.00000859786 462.941718 5.057176 471.942147 14.057605 C 480.942576 23.058034 485.999761 35.26954 485.999761 47.998793 L 485.999761 113.998452 C 485.999761 126.732935 480.942576 138.939211 471.942147 147.93964 C 462.941718 156.945298 450.730213 162.002483 438.00096 162.002483 L 48.001547 162.002483 C 35.267064 162.002483 23.060788 156.945298 14.060359 147.93964 C 5.0547 138.939211 -0.00248428 126.732935 -0.00248428 113.998452 L -0.00248428 47.998793 C -0.00248428 35.26954 5.0547 23.058034 14.060359 14.057605 C 23.060788 5.057176 35.267064 -0.00000859786 48.001547 -0.00000859786 Z M 48.001547 -0.00000859786 " transform="matrix(0.746926,0,0,0.746926,0.497949,0.00000642197)"/></g></g><g style="fill:#3dbdec;fill-opacity:0.4;"><g transform="translate(67.224718, 70.257328)"><path style="stroke:none" d="M 13.125 0 L 3.09375 0 L 3.09375 -25.921875 L 13.078125 -25.921875 C 15.148438 -25.921875 17.03125 -25.613281 18.71875 -25 C 20.40625 -24.382812 21.851562 -23.503906 23.0625 -22.359375 C 24.28125 -21.210938 25.21875 -19.847656 25.875 -18.265625 C 26.53125 -16.679688 26.859375 -14.921875 26.859375 -12.984375 C 26.859375 -11.035156 26.53125 -9.265625 25.875 -7.671875 C 25.21875 -6.078125 24.285156 -4.707031 23.078125 -3.5625 C 21.867188 -2.414062 20.421875 -1.535156 18.734375 -0.921875 C 17.054688 -0.304688 15.1875 0 13.125 0 Z M 7.75 -21.703125 L 7.75 -4.234375 L 12.984375 -4.234375 C 14.867188 -4.234375 16.488281 -4.582031 17.84375 -5.28125 C 19.207031 -5.988281 20.25 -6.988281 20.96875 -8.28125 C 21.695312 -9.582031 22.0625 -11.125 22.0625 -12.90625 C 22.0625 -14.664062 21.707031 -16.207031 21 -17.53125 C 20.289062 -18.851562 19.253906 -19.878906 17.890625 -20.609375 C 16.535156 -21.335938 14.882812 -21.703125 12.9375 -21.703125 Z M 7.75 -21.703125 "/></g><g transform="translate(95.350308, 70.257328)"><path style="stroke:none" d="M 10.546875 0.59375 C 9.222656 0.59375 8 0.328125 6.875 -0.203125 C 5.75 -0.742188 4.769531 -1.488281 3.9375 -2.4375 C 3.101562 -3.394531 2.457031 -4.5 2 -5.75 C 1.539062 -7.007812 1.3125 -8.359375 1.3125 -9.796875 C 1.3125 -11.234375 1.539062 -12.578125 2 -13.828125 C 2.46875 -15.078125 3.117188 -16.175781 3.953125 -17.125 C 4.785156 -18.082031 5.757812 -18.832031 6.875 -19.375 C 8 -19.914062 9.210938 -20.1875 10.515625 -20.1875 C 12.117188 -20.1875 13.539062 -19.835938 14.78125 -19.140625 C 16.03125 -18.453125 16.96875 -17.5 17.59375 -16.28125 L 17.59375 -19.59375 L 21.96875 -19.59375 L 21.96875 0 L 17.59375 0 L 17.59375 -3.296875 C 16.957031 -2.078125 16.019531 -1.125 14.78125 -0.4375 C 13.539062 0.25 12.128906 0.59375 10.546875 0.59375 Z M 11.640625 -3.671875 C 12.441406 -3.671875 13.191406 -3.828125 13.890625 -4.140625 C 14.585938 -4.453125 15.203125 -4.882812 15.734375 -5.4375 C 16.265625 -5.988281 16.675781 -6.632812 16.96875 -7.375 C 17.257812 -8.125 17.40625 -8.929688 17.40625 -9.796875 C 17.40625 -10.648438 17.253906 -11.445312 16.953125 -12.1875 C 16.648438 -12.925781 16.238281 -13.578125 15.71875 -14.140625 C 15.195312 -14.703125 14.585938 -15.132812 13.890625 -15.4375 C 13.191406 -15.75 12.441406 -15.90625 11.640625 -15.90625 C 10.585938 -15.90625 9.625 -15.648438 8.75 -15.140625 C 7.882812 -14.640625 7.191406 -13.929688 6.671875 -13.015625 C 6.148438 -12.097656 5.890625 -11.023438 5.890625 -9.796875 C 5.890625 -8.523438 6.148438 -7.429688 6.671875 -6.515625 C 7.203125 -5.597656 7.90625 -4.894531 8.78125 -4.40625 C 9.65625 -3.914062 10.609375 -3.671875 11.640625 -3.671875 Z M 11.640625 -3.671875 "/></g><g transform="translate(120.026893, 70.257328)"><path style="stroke:none" d="M 8.859375 0 L 4.25 0 L 4.25 -15.640625 L 0.34375 -15.640625 L 0.34375 -19.59375 L 4.25 -19.59375 L 4.25 -20.71875 C 4.25 -21.46875 4.359375 -22.21875 4.578125 -22.96875 C 4.804688 -23.71875 5.15625 -24.398438 5.625 -25.015625 C 6.101562 -25.640625 6.726562 -26.140625 7.5 -26.515625 C 8.28125 -26.890625 9.222656 -27.078125 10.328125 -27.078125 L 14.078125 -27.078125 L 14.078125 -23.25 L 11.484375 -23.25 C 10.921875 -23.25 10.441406 -23.113281 10.046875 -22.84375 C 9.660156 -22.582031 9.363281 -22.234375 9.15625 -21.796875 C 8.957031 -21.359375 8.859375 -20.878906 8.859375 -20.359375 L 8.859375 -19.59375 L 13.984375 -19.59375 L 13.984375 -15.640625 L 8.859375 -15.640625 Z M 8.859375 0 "/></g></g><g style="fill:#3dbdec;fill-opacity:0.4;"><g transform="translate(135.118674, 70.257328)"><path style="stroke:none" d="M 14.75 0 L 10.765625 0 C 10.179688 0 9.582031 -0.0507812 8.96875 -0.15625 C 8.351562 -0.269531 7.765625 -0.472656 7.203125 -0.765625 C 6.640625 -1.054688 6.140625 -1.476562 5.703125 -2.03125 C 5.265625 -2.582031 4.914062 -3.300781 4.65625 -4.1875 C 4.394531 -5.070312 4.265625 -6.160156 4.265625 -7.453125 L 4.265625 -15.625 L 0.203125 -15.625 L 0.203125 -19.59375 L 4.265625 -19.59375 L 4.265625 -25.328125 L 8.875 -25.359375 L 8.875 -19.59375 L 14.75 -19.59375 L 14.75 -15.625 L 8.875 -15.625 L 8.875 -7.234375 C 8.875 -6.328125 9.007812 -5.625 9.28125 -5.125 C 9.550781 -4.632812 9.90625 -4.296875 10.34375 -4.109375 C 10.78125 -3.921875 11.238281 -3.828125 11.71875 -3.828125 L 14.75 -3.828125 Z M 14.75 0 "/></g></g><g style="fill:#3dbdec;fill-opacity:0.4;"><g transform="translate(150.362896, 70.257328)"><path style="stroke:none" d="M 10.546875 0.59375 C 9.222656 0.59375 8 0.328125 6.875 -0.203125 C 5.75 -0.742188 4.769531 -1.488281 3.9375 -2.4375 C 3.101562 -3.394531 2.457031 -4.5 2 -5.75 C 1.539062 -7.007812 1.3125 -8.359375 1.3125 -9.796875 C 1.3125 -11.234375 1.539062 -12.578125 2 -13.828125 C 2.46875 -15.078125 3.117188 -16.175781 3.953125 -17.125 C 4.785156 -18.082031 5.757812 -18.832031 6.875 -19.375 C 8 -19.914062 9.210938 -20.1875 10.515625 -20.1875 C 12.117188 -20.1875 13.539062 -19.835938 14.78125 -19.140625 C 16.03125 -18.453125 16.96875 -17.5 17.59375 -16.28125 L 17.59375 -19.59375 L 21.96875 -19.59375 L 21.96875 0 L 17.59375 0 L 17.59375 -3.296875 C 16.957031 -2.078125 16.019531 -1.125 14.78125 -0.4375 C 13.539062 0.25 12.128906 0.59375 10.546875 0.59375 Z M 11.640625 -3.671875 C 12.441406 -3.671875 13.191406 -3.828125 13.890625 -4.140625 C 14.585938 -4.453125 15.203125 -4.882812 15.734375 -5.4375 C 16.265625 -5.988281 16.675781 -6.632812 16.96875 -7.375 C 17.257812 -8.125 17.40625 -8.929688 17.40625 -9.796875 C 17.40625 -10.648438 17.253906 -11.445312 16.953125 -12.1875 C 16.648438 -12.925781 16.238281 -13.578125 15.71875 -14.140625 C 15.195312 -14.703125 14.585938 -15.132812 13.890625 -15.4375 C 13.191406 -15.75 12.441406 -15.90625 11.640625 -15.90625 C 10.585938 -15.90625 9.625 -15.648438 8.75 -15.140625 C 7.882812 -14.640625 7.191406 -13.929688 6.671875 -13.015625 C 6.148438 -12.097656 5.890625 -11.023438 5.890625 -9.796875 C 5.890625 -8.523438 6.148438 -7.429688 6.671875 -6.515625 C 7.203125 -5.597656 7.90625 -4.894531 8.78125 -4.40625 C 9.65625 -3.914062 10.609375 -3.671875 11.640625 -3.671875 Z M 11.640625 -3.671875 "/></g><g transform="translate(175.039481, 70.257328)"><path style="stroke:none" d="M 7.3125 0 L 2.703125 0 L 2.703125 -19.59375 L 7.125 -19.59375 L 7.125 -16.046875 C 7.582031 -17.128906 8.253906 -17.988281 9.140625 -18.625 C 10.035156 -19.269531 11.117188 -19.59375 12.390625 -19.59375 L 14.484375 -19.59375 L 14.484375 -15.625 L 12.640625 -15.625 C 11.578125 -15.625 10.644531 -15.367188 9.84375 -14.859375 C 9.050781 -14.359375 8.429688 -13.625 7.984375 -12.65625 C 7.535156 -11.6875 7.3125 -10.503906 7.3125 -9.109375 Z M 7.3125 0 "/></g><g transform="translate(190.112206, 70.257328)"><path style="stroke:none" d=""/></g><g transform="translate(199.62079, 70.257328)"><path style="stroke:none" d="M 7.828125 0 L 3.09375 0 L 3.09375 -25.921875 L 7.21875 -25.921875 L 16.15625 -13.84375 L 25.15625 -25.921875 L 29.296875 -25.921875 L 29.296875 0 L 24.546875 0 L 24.546875 -18.3125 L 16.796875 -7.71875 L 15.515625 -7.71875 L 7.828125 -18.359375 Z M 7.828125 0 "/></g><g transform="translate(231.976651, 70.257328)"><path style="stroke:none" d="M 4.96875 -22.640625 C 4.082031 -22.640625 3.390625 -22.894531 2.890625 -23.40625 C 2.390625 -23.925781 2.140625 -24.554688 2.140625 -25.296875 C 2.140625 -26.003906 2.390625 -26.617188 2.890625 -27.140625 C 3.390625 -27.660156 4.09375 -27.921875 5 -27.921875 C 5.925781 -27.921875 6.640625 -27.660156 7.140625 -27.140625 C 7.640625 -26.617188 7.890625 -26.003906 7.890625 -25.296875 C 7.890625 -24.554688 7.640625 -23.925781 7.140625 -23.40625 C 6.640625 -22.894531 5.914062 -22.640625 4.96875 -22.640625 Z M 7.3125 0 L 2.703125 0 L 2.703125 -19.59375 L 7.3125 -19.59375 Z M 7.3125 0 "/></g><g transform="translate(241.980672, 70.257328)"><path style="stroke:none" d="M 14.75 0 L 10.765625 0 C 10.179688 0 9.582031 -0.0507812 8.96875 -0.15625 C 8.351562 -0.269531 7.765625 -0.472656 7.203125 -0.765625 C 6.640625 -1.054688 6.140625 -1.476562 5.703125 -2.03125 C 5.265625 -2.582031 4.914062 -3.300781 4.65625 -4.1875 C 4.394531 -5.070312 4.265625 -6.160156 4.265625 -7.453125 L 4.265625 -15.625 L 0.203125 -15.625 L 0.203125 -19.59375 L 4.265625 -19.59375 L 4.265625 -25.328125 L 8.875 -25.359375 L 8.875 -19.59375 L 14.75 -19.59375 L 14.75 -15.625 L 8.875 -15.625 L 8.875 -7.234375 C 8.875 -6.328125 9.007812 -5.625 9.28125 -5.125 C 9.550781 -4.632812 9.90625 -4.296875 10.34375 -4.109375 C 10.78125 -3.921875 11.238281 -3.828125 11.71875 -3.828125 L 14.75 -3.828125 Z M 14.75 0 "/></g><g transform="translate(257.758443, 70.257328)"><path style="stroke:none" d="M 7.3125 0 L 2.703125 0 L 2.703125 -19.59375 L 7.125 -19.59375 L 7.125 -16.046875 C 7.582031 -17.128906 8.253906 -17.988281 9.140625 -18.625 C 10.035156 -19.269531 11.117188 -19.59375 12.390625 -19.59375 L 14.484375 -19.59375 L 14.484375 -15.625 L 12.640625 -15.625 C 11.578125 -15.625 10.644531 -15.367188 9.84375 -14.859375 C 9.050781 -14.359375 8.429688 -13.625 7.984375 -12.65625 C 7.535156 -11.6875 7.3125 -10.503906 7.3125 -9.109375 Z M 7.3125 0 "/></g></g><g style="fill:#3dbdec;fill-opacity:0.4;"><g transform="translate(272.088012, 70.257328)"><path style="stroke:none" d="M 10.546875 0.59375 C 9.222656 0.59375 8 0.328125 6.875 -0.203125 C 5.75 -0.742188 4.769531 -1.488281 3.9375 -2.4375 C 3.101562 -3.394531 2.457031 -4.5 2 -5.75 C 1.539062 -7.007812 1.3125 -8.359375 1.3125 -9.796875 C 1.3125 -11.234375 1.539062 -12.578125 2 -13.828125 C 2.46875 -15.078125 3.117188 -16.175781 3.953125 -17.125 C 4.785156 -18.082031 5.757812 -18.832031 6.875 -19.375 C 8 -19.914062 9.210938 -20.1875 10.515625 -20.1875 C 12.117188 -20.1875 13.539062 -19.835938 14.78125 -19.140625 C 16.03125 -18.453125 16.96875 -17.5 17.59375 -16.28125 L 17.59375 -19.59375 L 21.96875 -19.59375 L 21.96875 0 L 17.59375 0 L 17.59375 -3.296875 C 16.957031 -2.078125 16.019531 -1.125 14.78125 -0.4375 C 13.539062 0.25 12.128906 0.59375 10.546875 0.59375 Z M 11.640625 -3.671875 C 12.441406 -3.671875 13.191406 -3.828125 13.890625 -4.140625 C 14.585938 -4.453125 15.203125 -4.882812 15.734375 -5.4375 C 16.265625 -5.988281 16.675781 -6.632812 16.96875 -7.375 C 17.257812 -8.125 17.40625 -8.929688 17.40625 -9.796875 C 17.40625 -10.648438 17.253906 -11.445312 16.953125 -12.1875 C 16.648438 -12.925781 16.238281 -13.578125 15.71875 -14.140625 C 15.195312 -14.703125 14.585938 -15.132812 13.890625 -15.4375 C 13.191406 -15.75 12.441406 -15.90625 11.640625 -15.90625 C 10.585938 -15.90625 9.625 -15.648438 8.75 -15.140625 C 7.882812 -14.640625 7.191406 -13.929688 6.671875 -13.015625 C 6.148438 -12.097656 5.890625 -11.023438 5.890625 -9.796875 C 5.890625 -8.523438 6.148438 -7.429688 6.671875 -6.515625 C 7.203125 -5.597656 7.90625 -4.894531 8.78125 -4.40625 C 9.65625 -3.914062 10.609375 -3.671875 11.640625 -3.671875 Z M 11.640625 -3.671875 "/></g></g><g style="fill:#ffffff;fill-opacity:1;"><g transform="translate(67.224718, 70.257328)"><path style="stroke:none" d="M 13.125 0 L 3.09375 0 L 3.09375 -25.921875 L 13.078125 -25.921875 C 15.148438 -25.921875 17.03125 -25.613281 18.71875 -25 C 20.40625 -24.382812 21.851562 -23.503906 23.0625 -22.359375 C 24.28125 -21.210938 25.21875 -19.847656 25.875 -18.265625 C 26.53125 -16.679688 26.859375 -14.921875 26.859375 -12.984375 C 26.859375 -11.035156 26.53125 -9.265625 25.875 -7.671875 C 25.21875 -6.078125 24.285156 -4.707031 23.078125 -3.5625 C 21.867188 -2.414062 20.421875 -1.535156 18.734375 -0.921875 C 17.054688 -0.304688 15.1875 0 13.125 0 Z M 7.75 -21.703125 L 7.75 -4.234375 L 12.984375 -4.234375 C 14.867188 -4.234375 16.488281 -4.582031 17.84375 -5.28125 C 19.207031 -5.988281 20.25 -6.988281 20.96875 -8.28125 C 21.695312 -9.582031 22.0625 -11.125 22.0625 -12.90625 C 22.0625 -14.664062 21.707031 -16.207031 21 -17.53125 C 20.289062 -18.851562 19.253906 -19.878906 17.890625 -20.609375 C 16.535156 -21.335938 14.882812 -21.703125 12.9375 -21.703125 Z M 7.75 -21.703125 "/></g><g transform="translate(95.350308, 70.257328)"><path style="stroke:none" d="M 10.546875 0.59375 C 9.222656 0.59375 8 0.328125 6.875 -0.203125 C 5.75 -0.742188 4.769531 -1.488281 3.9375 -2.4375 C 3.101562 -3.394531 2.457031 -4.5 2 -5.75 C 1.539062 -7.007812 1.3125 -8.359375 1.3125 -9.796875 C 1.3125 -11.234375 1.539062 -12.578125 2 -13.828125 C 2.46875 -15.078125 3.117188 -16.175781 3.953125 -17.125 C 4.785156 -18.082031 5.757812 -18.832031 6.875 -19.375 C 8 -19.914062 9.210938 -20.1875 10.515625 -20.1875 C 12.117188 -20.1875 13.539062 -19.835938 14.78125 -19.140625 C 16.03125 -18.453125 16.96875 -17.5 17.59375 -16.28125 L 17.59375 -19.59375 L 21.96875 -19.59375 L 21.96875 0 L 17.59375 0 L 17.59375 -3.296875 C 16.957031 -2.078125 16.019531 -1.125 14.78125 -0.4375 C 13.539062 0.25 12.128906 0.59375 10.546875 0.59375 Z M 11.640625 -3.671875 C 12.441406 -3.671875 13.191406 -3.828125 13.890625 -4.140625 C 14.585938 -4.453125 15.203125 -4.882812 15.734375 -5.4375 C 16.265625 -5.988281 16.675781 -6.632812 16.96875 -7.375 C 17.257812 -8.125 17.40625 -8.929688 17.40625 -9.796875 C 17.40625 -10.648438 17.253906 -11.445312 16.953125 -12.1875 C 16.648438 -12.925781 16.238281 -13.578125 15.71875 -14.140625 C 15.195312 -14.703125 14.585938 -15.132812 13.890625 -15.4375 C 13.191406 -15.75 12.441406 -15.90625 11.640625 -15.90625 C 10.585938 -15.90625 9.625 -15.648438 8.75 -15.140625 C 7.882812 -14.640625 7.191406 -13.929688 6.671875 -13.015625 C 6.148438 -12.097656 5.890625 -11.023438 5.890625 -9.796875 C 5.890625 -8.523438 6.148438 -7.429688 6.671875 -6.515625 C 7.203125 -5.597656 7.90625 -4.894531 8.78125 -4.40625 C 9.65625 -3.914062 10.609375 -3.671875 11.640625 -3.671875 Z M 11.640625 -3.671875 "/></g><g transform="translate(120.026893, 70.257328)"><path style="stroke:none" d="M 8.859375 0 L 4.25 0 L 4.25 -15.640625 L 0.34375 -15.640625 L 0.34375 -19.59375 L 4.25 -19.59375 L 4.25 -20.71875 C 4.25 -21.46875 4.359375 -22.21875 4.578125 -22.96875 C 4.804688 -23.71875 5.15625 -24.398438 5.625 -25.015625 C 6.101562 -25.640625 6.726562 -26.140625 7.5 -26.515625 C 8.28125 -26.890625 9.222656 -27.078125 10.328125 -27.078125 L 14.078125 -27.078125 L 14.078125 -23.25 L 11.484375 -23.25 C 10.921875 -23.25 10.441406 -23.113281 10.046875 -22.84375 C 9.660156 -22.582031 9.363281 -22.234375 9.15625 -21.796875 C 8.957031 -21.359375 8.859375 -20.878906 8.859375 -20.359375 L 8.859375 -19.59375 L 13.984375 -19.59375 L 13.984375 -15.640625 L 8.859375 -15.640625 Z M 8.859375 0 "/></g></g><g style="fill:#ffffff;fill-opacity:1;"><g transform="translate(135.118674, 70.257328)"><path style="stroke:none" d="M 14.75 0 L 10.765625 0 C 10.179688 0 9.582031 -0.0507812 8.96875 -0.15625 C 8.351562 -0.269531 7.765625 -0.472656 7.203125 -0.765625 C 6.640625 -1.054688 6.140625 -1.476562 5.703125 -2.03125 C 5.265625 -2.582031 4.914062 -3.300781 4.65625 -4.1875 C 4.394531 -5.070312 4.265625 -6.160156 4.265625 -7.453125 L 4.265625 -15.625 L 0.203125 -15.625 L 0.203125 -19.59375 L 4.265625 -19.59375 L 4.265625 -25.328125 L 8.875 -25.359375 L 8.875 -19.59375 L 14.75 -19.59375 L 14.75 -15.625 L 8.875 -15.625 L 8.875 -7.234375 C 8.875 -6.328125 9.007812 -5.625 9.28125 -5.125 C 9.550781 -4.632812 9.90625 -4.296875 10.34375 -4.109375 C 10.78125 -3.921875 11.238281 -3.828125 11.71875 -3.828125 L 14.75 -3.828125 Z M 14.75 0 "/></g></g><g style="fill:#ffffff;fill-opacity:1;"><g transform="translate(150.362896, 70.257328)"><path style="stroke:none" d="M 10.546875 0.59375 C 9.222656 0.59375 8 0.328125 6.875 -0.203125 C 5.75 -0.742188 4.769531 -1.488281 3.9375 -2.4375 C 3.101562 -3.394531 2.457031 -4.5 2 -5.75 C 1.539062 -7.007812 1.3125 -8.359375 1.3125 -9.796875 C 1.3125 -11.234375 1.539062 -12.578125 2 -13.828125 C 2.46875 -15.078125 3.117188 -16.175781 3.953125 -17.125 C 4.785156 -18.082031 5.757812 -18.832031 6.875 -19.375 C 8 -19.914062 9.210938 -20.1875 10.515625 -20.1875 C 12.117188 -20.1875 13.539062 -19.835938 14.78125 -19.140625 C 16.03125 -18.453125 16.96875 -17.5 17.59375 -16.28125 L 17.59375 -19.59375 L 21.96875 -19.59375 L 21.96875 0 L 17.59375 0 L 17.59375 -3.296875 C 16.957031 -2.078125 16.019531 -1.125 14.78125 -0.4375 C 13.539062 0.25 12.128906 0.59375 10.546875 0.59375 Z M 11.640625 -3.671875 C 12.441406 -3.671875 13.191406 -3.828125 13.890625 -4.140625 C 14.585938 -4.453125 15.203125 -4.882812 15.734375 -5.4375 C 16.265625 -5.988281 16.675781 -6.632812 16.96875 -7.375 C 17.257812 -8.125 17.40625 -8.929688 17.40625 -9.796875 C 17.40625 -10.648438 17.253906 -11.445312 16.953125 -12.1875 C 16.648438 -12.925781 16.238281 -13.578125 15.71875 -14.140625 C 15.195312 -14.703125 14.585938 -15.132812 13.890625 -15.4375 C 13.191406 -15.75 12.441406 -15.90625 11.640625 -15.90625 C 10.585938 -15.90625 9.625 -15.648438 8.75 -15.140625 C 7.882812 -14.640625 7.191406 -13.929688 6.671875 -13.015625 C 6.148438 -12.097656 5.890625 -11.023438 5.890625 -9.796875 C 5.890625 -8.523438 6.148438 -7.429688 6.671875 -6.515625 C 7.203125 -5.597656 7.90625 -4.894531 8.78125 -4.40625 C 9.65625 -3.914062 10.609375 -3.671875 11.640625 -3.671875 Z M 11.640625 -3.671875 "/></g><g transform="translate(175.039481, 70.257328)"><path style="stroke:none" d="M 7.3125 0 L 2.703125 0 L 2.703125 -19.59375 L 7.125 -19.59375 L 7.125 -16.046875 C 7.582031 -17.128906 8.253906 -17.988281 9.140625 -18.625 C 10.035156 -19.269531 11.117188 -19.59375 12.390625 -19.59375 L 14.484375 -19.59375 L 14.484375 -15.625 L 12.640625 -15.625 C 11.578125 -15.625 10.644531 -15.367188 9.84375 -14.859375 C 9.050781 -14.359375 8.429688 -13.625 7.984375 -12.65625 C 7.535156 -11.6875 7.3125 -10.503906 7.3125 -9.109375 Z M 7.3125 0 "/></g><g transform="translate(190.112206, 70.257328)"><path style="stroke:none" d=""/></g><g transform="translate(199.62079, 70.257328)"><path style="stroke:none" d="M 7.828125 0 L 3.09375 0 L 3.09375 -25.921875 L 7.21875 -25.921875 L 16.15625 -13.84375 L 25.15625 -25.921875 L 29.296875 -25.921875 L 29.296875 0 L 24.546875 0 L 24.546875 -18.3125 L 16.796875 -7.71875 L 15.515625 -7.71875 L 7.828125 -18.359375 Z M 7.828125 0 "/></g><g transform="translate(231.976651, 70.257328)"><path style="stroke:none" d="M 4.96875 -22.640625 C 4.082031 -22.640625 3.390625 -22.894531 2.890625 -23.40625 C 2.390625 -23.925781 2.140625 -24.554688 2.140625 -25.296875 C 2.140625 -26.003906 2.390625 -26.617188 2.890625 -27.140625 C 3.390625 -27.660156 4.09375 -27.921875 5 -27.921875 C 5.925781 -27.921875 6.640625 -27.660156 7.140625 -27.140625 C 7.640625 -26.617188 7.890625 -26.003906 7.890625 -25.296875 C 7.890625 -24.554688 7.640625 -23.925781 7.140625 -23.40625 C 6.640625 -22.894531 5.914062 -22.640625 4.96875 -22.640625 Z M 7.3125 0 L 2.703125 0 L 2.703125 -19.59375 L 7.3125 -19.59375 Z M 7.3125 0 "/></g><g transform="translate(241.980672, 70.257328)"><path style="stroke:none" d="M 14.75 0 L 10.765625 0 C 10.179688 0 9.582031 -0.0507812 8.96875 -0.15625 C 8.351562 -0.269531 7.765625 -0.472656 7.203125 -0.765625 C 6.640625 -1.054688 6.140625 -1.476562 5.703125 -2.03125 C 5.265625 -2.582031 4.914062 -3.300781 4.65625 -4.1875 C 4.394531 -5.070312 4.265625 -6.160156 4.265625 -7.453125 L 4.265625 -15.625 L 0.203125 -15.625 L 0.203125 -19.59375 L 4.265625 -19.59375 L 4.265625 -25.328125 L 8.875 -25.359375 L 8.875 -19.59375 L 14.75 -19.59375 L 14.75 -15.625 L 8.875 -15.625 L 8.875 -7.234375 C 8.875 -6.328125 9.007812 -5.625 9.28125 -5.125 C 9.550781 -4.632812 9.90625 -4.296875 10.34375 -4.109375 C 10.78125 -3.921875 11.238281 -3.828125 11.71875 -3.828125 L 14.75 -3.828125 Z M 14.75 0 "/></g><g transform="translate(257.758443, 70.257328)"><path style="stroke:none" d="M 7.3125 0 L 2.703125 0 L 2.703125 -19.59375 L 7.125 -19.59375 L 7.125 -16.046875 C 7.582031 -17.128906 8.253906 -17.988281 9.140625 -18.625 C 10.035156 -19.269531 11.117188 -19.59375 12.390625 -19.59375 L 14.484375 -19.59375 L 14.484375 -15.625 L 12.640625 -15.625 C 11.578125 -15.625 10.644531 -15.367188 9.84375 -14.859375 C 9.050781 -14.359375 8.429688 -13.625 7.984375 -12.65625 C 7.535156 -11.6875 7.3125 -10.503906 7.3125 -9.109375 Z M 7.3125 0 "/></g></g><g style="fill:#ffffff;fill-opacity:1;"><g transform="translate(272.088012, 70.257328)"><path style="stroke:none" d="M 10.546875 0.59375 C 9.222656 0.59375 8 0.328125 6.875 -0.203125 C 5.75 -0.742188 4.769531 -1.488281 3.9375 -2.4375 C 3.101562 -3.394531 2.457031 -4.5 2 -5.75 C 1.539062 -7.007812 1.3125 -8.359375 1.3125 -9.796875 C 1.3125 -11.234375 1.539062 -12.578125 2 -13.828125 C 2.46875 -15.078125 3.117188 -16.175781 3.953125 -17.125 C 4.785156 -18.082031 5.757812 -18.832031 6.875 -19.375 C 8 -19.914062 9.210938 -20.1875 10.515625 -20.1875 C 12.117188 -20.1875 13.539062 -19.835938 14.78125 -19.140625 C 16.03125 -18.453125 16.96875 -17.5 17.59375 -16.28125 L 17.59375 -19.59375 L 21.96875 -19.59375 L 21.96875 0 L 17.59375 0 L 17.59375 -3.296875 C 16.957031 -2.078125 16.019531 -1.125 14.78125 -0.4375 C 13.539062 0.25 12.128906 0.59375 10.546875 0.59375 Z M 11.640625 -3.671875 C 12.441406 -3.671875 13.191406 -3.828125 13.890625 -4.140625 C 14.585938 -4.453125 15.203125 -4.882812 15.734375 -5.4375 C 16.265625 -5.988281 16.675781 -6.632812 16.96875 -7.375 C 17.257812 -8.125 17.40625 -8.929688 17.40625 -9.796875 C 17.40625 -10.648438 17.253906 -11.445312 16.953125 -12.1875 C 16.648438 -12.925781 16.238281 -13.578125 15.71875 -14.140625 C 15.195312 -14.703125 14.585938 -15.132812 13.890625 -15.4375 C 13.191406 -15.75 12.441406 -15.90625 11.640625 -15.90625 C 10.585938 -15.90625 9.625 -15.648438 8.75 -15.140625 C 7.882812 -14.640625 7.191406 -13.929688 6.671875 -13.015625 C 6.148438 -12.097656 5.890625 -11.023438 5.890625 -9.796875 C 5.890625 -8.523438 6.148438 -7.429688 6.671875 -6.515625 C 7.203125 -5.597656 7.90625 -4.894531 8.78125 -4.40625 C 9.65625 -3.914062 10.609375 -3.671875 11.640625 -3.671875 Z M 11.640625 -3.671875 "/></g></g></g></svg>