<svg xmlns="http://www.w3.org/2000/svg" xmlns:xlink="http://www.w3.org/1999/xlink" width="486" zoomAndPan="magnify" viewBox="0 0 364.5 121.500001" height="162" preserveAspectRatio="xMidYMid meet" version="1.2"><defs><clipPath id="bab529f9e3"><path d="M 0.496094 0 L 363.503906 0 L 363.503906 121.003906 L 0.496094 121.003906 Z M 0.496094 0 "/></clipPath><clipPath id="1885d4b9f5"><path d="M 0.496094 0 L 363.503906 0 L 363.503906 121.003906 L 0.496094 121.003906 Z M 0.496094 0 "/></clipPath><clipPath id="05b0d73766"><path d="M 36.351562 0 L 327.652344 0 C 337.160156 0 346.28125 3.777344 353.003906 10.5 C 359.726562 17.222656 363.503906 26.34375 363.503906 35.851562 L 363.503906 85.148438 C 363.503906 94.660156 359.726562 103.777344 353.003906 110.5 C 346.28125 117.226562 337.160156 121.003906 327.652344 121.003906 L 36.351562 121.003906 C 26.839844 121.003906 17.722656 117.226562 11 110.5 C 4.273438 103.777344 0.496094 94.660156 0.496094 85.148438 L 0.496094 35.851562 C 0.496094 26.34375 4.273438 17.222656 11 10.5 C 17.722656 3.777344 26.839844 0 36.351562 0 Z M 36.351562 0 "/></clipPath></defs><g id="fb8f69bcc1"><g clip-rule="nonzero" clip-path="url(#bab529f9e3)"><path style=" stroke:none;fill-rule:nonzero;fill:#ffffff;fill-opacity:1;" d="M 0.496094 0 L 363.503906 0 L 363.503906 121.003906 L 0.496094 121.003906 Z M 0.496094 0 "/><path style=" stroke:none;fill-rule:nonzero;fill:#ffffff;fill-opacity:1;" d="M 0.496094 0 L 363.503906 0 L 363.503906 121.003906 L 0.496094 121.003906 Z M 0.496094 0 "/></g><g clip-rule="nonzero" clip-path="url(#1885d4b9f5)"><g clip-rule="nonzero" clip-path="url(#05b0d73766)"><path style=" stroke:none;fill-rule:nonzero;fill:#004aad;fill-opacity:1;" d="M 0.496094 0 L 363.503906 0 L 363.503906 121.003906 L 0.496094 121.003906 Z M 0.496094 0 "/><path style="fill:none;stroke-width:12;stroke-linecap:butt;stroke-linejoin:miter;stroke:#3dbdec;stroke-opacity:1;stroke-miterlimit:4;" d="M 48.001547 -0.00000859786 L 438.00096 -0.00000859786 C 450.730213 -0.00000859786 462.941718 5.057176 471.942147 14.057605 C 480.942576 23.058034 485.999761 35.26954 485.999761 47.998793 L 485.999761 113.998452 C 485.999761 126.732935 480.942576 138.939211 471.942147 147.93964 C 462.941718 156.945298 450.730213 162.002483 438.00096 162.002483 L 48.001547 162.002483 C 35.267064 162.002483 23.060788 156.945298 14.060359 147.93964 C 5.0547 138.939211 -0.00248428 126.732935 -0.00248428 113.998452 L -0.00248428 47.998793 C -0.00248428 35.26954 5.0547 23.058034 14.060359 14.057605 C 23.060788 5.057176 35.267064 -0.00000859786 48.001547 -0.00000859786 Z M 48.001547 -0.00000859786 " transform="matrix(0.746926,0,0,0.746926,0.497949,0.00000642197)"/></g></g><g style="fill:#3dbdec;fill-opacity:0.4;"><g transform="translate(25.887463, 70.257328)"><path style="stroke:none" d="M 24.1875 -25.921875 L 14.9375 -14.453125 L 25.5 0 L 19.875 0 L 11.828125 -11 L 7.828125 -5.984375 L 7.828125 0 L 3.09375 0 L 3.09375 -25.921875 L 7.828125 -25.921875 L 7.828125 -12.28125 L 18.640625 -25.921875 Z M 24.1875 -25.921875 "/></g></g><g style="fill:#3dbdec;fill-opacity:0.4;"><g transform="translate(50.506882, 70.257328)"><path style="stroke:none" d="M 11.609375 0.59375 C 10.117188 0.59375 8.742188 0.328125 7.484375 -0.203125 C 6.234375 -0.742188 5.144531 -1.488281 4.21875 -2.4375 C 3.300781 -3.394531 2.585938 -4.5 2.078125 -5.75 C 1.566406 -7.007812 1.3125 -8.359375 1.3125 -9.796875 C 1.3125 -11.234375 1.566406 -12.578125 2.078125 -13.828125 C 2.585938 -15.078125 3.300781 -16.175781 4.21875 -17.125 C 5.144531 -18.082031 6.234375 -18.832031 7.484375 -19.375 C 8.742188 -19.914062 10.125 -20.1875 11.625 -20.1875 C 13.132812 -20.1875 14.519531 -19.914062 15.78125 -19.375 C 17.039062 -18.832031 18.132812 -18.082031 19.0625 -17.125 C 19.988281 -16.175781 20.703125 -15.078125 21.203125 -13.828125 C 21.710938 -12.578125 21.96875 -11.234375 21.96875 -9.796875 C 21.96875 -8.347656 21.710938 -7 21.203125 -5.75 C 20.703125 -4.5 19.988281 -3.394531 19.0625 -2.4375 C 18.132812 -1.488281 17.035156 -0.742188 15.765625 -0.203125 C 14.503906 0.328125 13.117188 0.59375 11.609375 0.59375 Z M 11.640625 -3.703125 C 12.742188 -3.703125 13.726562 -3.960938 14.59375 -4.484375 C 15.457031 -5.015625 16.140625 -5.738281 16.640625 -6.65625 C 17.148438 -7.570312 17.40625 -8.617188 17.40625 -9.796875 C 17.40625 -10.972656 17.148438 -12.019531 16.640625 -12.9375 C 16.140625 -13.863281 15.457031 -14.585938 14.59375 -15.109375 C 13.726562 -15.640625 12.742188 -15.90625 11.640625 -15.90625 C 10.546875 -15.90625 9.5625 -15.640625 8.6875 -15.109375 C 7.820312 -14.585938 7.140625 -13.863281 6.640625 -12.9375 C 6.140625 -12.019531 5.890625 -10.972656 5.890625 -9.796875 C 5.890625 -8.617188 6.140625 -7.570312 6.640625 -6.65625 C 7.140625 -5.738281 7.820312 -5.015625 8.6875 -4.484375 C 9.5625 -3.960938 10.546875 -3.703125 11.640625 -3.703125 Z M 11.640625 -3.703125 "/></g><g transform="translate(73.792431, 70.257328)"><path style="stroke:none" d="M 7.3125 0 L 2.703125 0 L 2.703125 -19.59375 L 7.09375 -19.59375 L 7.09375 -16.546875 C 7.46875 -17.253906 7.984375 -17.878906 8.640625 -18.421875 C 9.304688 -18.972656 10.078125 -19.40625 10.953125 -19.71875 C 11.835938 -20.03125 12.78125 -20.1875 13.78125 -20.1875 C 16.40625 -20.1875 18.375 -19.347656 19.6875 -17.671875 C 21 -16.003906 21.65625 -13.632812 21.65625 -10.5625 L 21.65625 0 L 17.03125 0 L 17.03125 -10.46875 C 17.03125 -12.40625 16.625 -13.800781 15.8125 -14.65625 C 15 -15.507812 13.894531 -15.9375 12.5 -15.9375 C 11.601562 -15.9375 10.757812 -15.707031 9.96875 -15.25 C 9.175781 -14.789062 8.535156 -14.125 8.046875 -13.25 C 7.554688 -12.375 7.3125 -11.289062 7.3125 -10 Z M 7.3125 0 "/></g><g transform="translate(97.992634, 70.257328)"><path style="stroke:none" d="M 9.765625 0.59375 C 8.328125 0.59375 7.078125 0.398438 6.015625 0.015625 C 4.953125 -0.359375 4.070312 -0.867188 3.375 -1.515625 C 2.6875 -2.171875 2.171875 -2.90625 1.828125 -3.71875 C 1.492188 -4.53125 1.328125 -5.367188 1.328125 -6.234375 L 5.75 -6.21875 C 5.789062 -5.320312 6.144531 -4.570312 6.8125 -3.96875 C 7.488281 -3.363281 8.484375 -3.0625 9.796875 -3.0625 C 10.992188 -3.0625 11.875 -3.289062 12.4375 -3.75 C 13 -4.207031 13.28125 -4.804688 13.28125 -5.546875 C 13.28125 -6.109375 13.117188 -6.546875 12.796875 -6.859375 C 12.484375 -7.179688 12.019531 -7.429688 11.40625 -7.609375 C 10.789062 -7.796875 10.035156 -7.953125 9.140625 -8.078125 C 8.203125 -8.203125 7.3125 -8.398438 6.46875 -8.671875 C 5.625 -8.941406 4.878906 -9.3125 4.234375 -9.78125 C 3.585938 -10.25 3.078125 -10.835938 2.703125 -11.546875 C 2.328125 -12.253906 2.140625 -13.117188 2.140625 -14.140625 C 2.140625 -15.347656 2.421875 -16.398438 2.984375 -17.296875 C 3.546875 -18.203125 4.375 -18.910156 5.46875 -19.421875 C 6.570312 -19.929688 7.921875 -20.1875 9.515625 -20.1875 C 11.085938 -20.1875 12.46875 -19.921875 13.65625 -19.390625 C 14.84375 -18.859375 15.765625 -18.117188 16.421875 -17.171875 C 17.085938 -16.234375 17.421875 -15.140625 17.421875 -13.890625 L 12.90625 -13.9375 C 12.851562 -14.65625 12.539062 -15.242188 11.96875 -15.703125 C 11.40625 -16.171875 10.59375 -16.40625 9.53125 -16.40625 C 8.539062 -16.40625 7.816406 -16.191406 7.359375 -15.765625 C 6.898438 -15.335938 6.671875 -14.828125 6.671875 -14.234375 C 6.671875 -13.753906 6.773438 -13.363281 6.984375 -13.0625 C 7.203125 -12.757812 7.609375 -12.507812 8.203125 -12.3125 C 8.796875 -12.125 9.648438 -11.941406 10.765625 -11.765625 C 11.785156 -11.609375 12.734375 -11.398438 13.609375 -11.140625 C 14.484375 -10.890625 15.25 -10.546875 15.90625 -10.109375 C 16.5625 -9.671875 17.070312 -9.101562 17.4375 -8.40625 C 17.800781 -7.71875 17.984375 -6.851562 17.984375 -5.8125 C 17.984375 -4.375 17.625 -3.179688 16.90625 -2.234375 C 16.195312 -1.285156 15.222656 -0.578125 13.984375 -0.109375 C 12.742188 0.359375 11.335938 0.59375 9.765625 0.59375 Z M 9.765625 0.59375 "/></g><g transform="translate(117.086023, 70.257328)"><path style="stroke:none" d="M 11.515625 0.59375 C 10.203125 0.59375 8.984375 0.410156 7.859375 0.046875 C 6.742188 -0.316406 5.765625 -0.882812 4.921875 -1.65625 C 4.085938 -2.4375 3.4375 -3.441406 2.96875 -4.671875 C 2.507812 -5.898438 2.28125 -7.382812 2.28125 -9.125 L 2.28125 -19.59375 L 6.859375 -19.59375 L 6.859375 -9.265625 C 6.859375 -7.460938 7.242188 -6.082031 8.015625 -5.125 C 8.796875 -4.175781 9.953125 -3.703125 11.484375 -3.703125 C 13.035156 -3.703125 14.191406 -4.179688 14.953125 -5.140625 C 15.722656 -6.097656 16.109375 -7.472656 16.109375 -9.265625 L 16.109375 -19.59375 L 20.703125 -19.59375 L 20.703125 -9.125 C 20.703125 -7.382812 20.46875 -5.898438 20 -4.671875 C 19.539062 -3.441406 18.890625 -2.4375 18.046875 -1.65625 C 17.210938 -0.882812 16.238281 -0.316406 15.125 0.046875 C 14.007812 0.410156 12.804688 0.59375 11.515625 0.59375 Z M 11.515625 0.59375 "/></g><g transform="translate(140.066688, 70.257328)"><path style="stroke:none" d="M 7.3125 0 L 2.703125 0 L 2.703125 -26.859375 L 7.3125 -26.859375 Z M 7.3125 0 "/></g><g transform="translate(150.070709, 70.257328)"><path style="stroke:none" d="M 14.75 0 L 10.765625 0 C 10.179688 0 9.582031 -0.0507812 8.96875 -0.15625 C 8.351562 -0.269531 7.765625 -0.472656 7.203125 -0.765625 C 6.640625 -1.054688 6.140625 -1.476562 5.703125 -2.03125 C 5.265625 -2.582031 4.914062 -3.300781 4.65625 -4.1875 C 4.394531 -5.070312 4.265625 -6.160156 4.265625 -7.453125 L 4.265625 -15.625 L 0.203125 -15.625 L 0.203125 -19.59375 L 4.265625 -19.59375 L 4.265625 -25.328125 L 8.875 -25.359375 L 8.875 -19.59375 L 14.75 -19.59375 L 14.75 -15.625 L 8.875 -15.625 L 8.875 -7.234375 C 8.875 -6.328125 9.007812 -5.625 9.28125 -5.125 C 9.550781 -4.632812 9.90625 -4.296875 10.34375 -4.109375 C 10.78125 -3.921875 11.238281 -3.828125 11.71875 -3.828125 L 14.75 -3.828125 Z M 14.75 0 "/></g></g><g style="fill:#3dbdec;fill-opacity:0.4;"><g transform="translate(165.314932, 70.257328)"><path style="stroke:none" d="M 10.546875 0.59375 C 9.222656 0.59375 8 0.328125 6.875 -0.203125 C 5.75 -0.742188 4.769531 -1.488281 3.9375 -2.4375 C 3.101562 -3.394531 2.457031 -4.5 2 -5.75 C 1.539062 -7.007812 1.3125 -8.359375 1.3125 -9.796875 C 1.3125 -11.234375 1.539062 -12.578125 2 -13.828125 C 2.46875 -15.078125 3.117188 -16.175781 3.953125 -17.125 C 4.785156 -18.082031 5.757812 -18.832031 6.875 -19.375 C 8 -19.914062 9.210938 -20.1875 10.515625 -20.1875 C 12.117188 -20.1875 13.539062 -19.835938 14.78125 -19.140625 C 16.03125 -18.453125 16.96875 -17.5 17.59375 -16.28125 L 17.59375 -19.59375 L 21.96875 -19.59375 L 21.96875 0 L 17.59375 0 L 17.59375 -3.296875 C 16.957031 -2.078125 16.019531 -1.125 14.78125 -0.4375 C 13.539062 0.25 12.128906 0.59375 10.546875 0.59375 Z M 11.640625 -3.671875 C 12.441406 -3.671875 13.191406 -3.828125 13.890625 -4.140625 C 14.585938 -4.453125 15.203125 -4.882812 15.734375 -5.4375 C 16.265625 -5.988281 16.675781 -6.632812 16.96875 -7.375 C 17.257812 -8.125 17.40625 -8.929688 17.40625 -9.796875 C 17.40625 -10.648438 17.253906 -11.445312 16.953125 -12.1875 C 16.648438 -12.925781 16.238281 -13.578125 15.71875 -14.140625 C 15.195312 -14.703125 14.585938 -15.132812 13.890625 -15.4375 C 13.191406 -15.75 12.441406 -15.90625 11.640625 -15.90625 C 10.585938 -15.90625 9.625 -15.648438 8.75 -15.140625 C 7.882812 -14.640625 7.191406 -13.929688 6.671875 -13.015625 C 6.148438 -12.097656 5.890625 -11.023438 5.890625 -9.796875 C 5.890625 -8.523438 6.148438 -7.429688 6.671875 -6.515625 C 7.203125 -5.597656 7.90625 -4.894531 8.78125 -4.40625 C 9.65625 -3.914062 10.609375 -3.671875 11.640625 -3.671875 Z M 11.640625 -3.671875 "/></g><g transform="translate(189.991517, 70.257328)"><path style="stroke:none" d="M 9.765625 0.59375 C 8.328125 0.59375 7.078125 0.398438 6.015625 0.015625 C 4.953125 -0.359375 4.070312 -0.867188 3.375 -1.515625 C 2.6875 -2.171875 2.171875 -2.90625 1.828125 -3.71875 C 1.492188 -4.53125 1.328125 -5.367188 1.328125 -6.234375 L 5.75 -6.21875 C 5.789062 -5.320312 6.144531 -4.570312 6.8125 -3.96875 C 7.488281 -3.363281 8.484375 -3.0625 9.796875 -3.0625 C 10.992188 -3.0625 11.875 -3.289062 12.4375 -3.75 C 13 -4.207031 13.28125 -4.804688 13.28125 -5.546875 C 13.28125 -6.109375 13.117188 -6.546875 12.796875 -6.859375 C 12.484375 -7.179688 12.019531 -7.429688 11.40625 -7.609375 C 10.789062 -7.796875 10.035156 -7.953125 9.140625 -8.078125 C 8.203125 -8.203125 7.3125 -8.398438 6.46875 -8.671875 C 5.625 -8.941406 4.878906 -9.3125 4.234375 -9.78125 C 3.585938 -10.25 3.078125 -10.835938 2.703125 -11.546875 C 2.328125 -12.253906 2.140625 -13.117188 2.140625 -14.140625 C 2.140625 -15.347656 2.421875 -16.398438 2.984375 -17.296875 C 3.546875 -18.203125 4.375 -18.910156 5.46875 -19.421875 C 6.570312 -19.929688 7.921875 -20.1875 9.515625 -20.1875 C 11.085938 -20.1875 12.46875 -19.921875 13.65625 -19.390625 C 14.84375 -18.859375 15.765625 -18.117188 16.421875 -17.171875 C 17.085938 -16.234375 17.421875 -15.140625 17.421875 -13.890625 L 12.90625 -13.9375 C 12.851562 -14.65625 12.539062 -15.242188 11.96875 -15.703125 C 11.40625 -16.171875 10.59375 -16.40625 9.53125 -16.40625 C 8.539062 -16.40625 7.816406 -16.191406 7.359375 -15.765625 C 6.898438 -15.335938 6.671875 -14.828125 6.671875 -14.234375 C 6.671875 -13.753906 6.773438 -13.363281 6.984375 -13.0625 C 7.203125 -12.757812 7.609375 -12.507812 8.203125 -12.3125 C 8.796875 -12.125 9.648438 -11.941406 10.765625 -11.765625 C 11.785156 -11.609375 12.734375 -11.398438 13.609375 -11.140625 C 14.484375 -10.890625 15.25 -10.546875 15.90625 -10.109375 C 16.5625 -9.671875 17.070312 -9.101562 17.4375 -8.40625 C 17.800781 -7.71875 17.984375 -6.851562 17.984375 -5.8125 C 17.984375 -4.375 17.625 -3.179688 16.90625 -2.234375 C 16.195312 -1.285156 15.222656 -0.578125 13.984375 -0.109375 C 12.742188 0.359375 11.335938 0.59375 9.765625 0.59375 Z M 9.765625 0.59375 "/></g><g transform="translate(209.084906, 70.257328)"><path style="stroke:none" d="M 4.96875 -22.640625 C 4.082031 -22.640625 3.390625 -22.894531 2.890625 -23.40625 C 2.390625 -23.925781 2.140625 -24.554688 2.140625 -25.296875 C 2.140625 -26.003906 2.390625 -26.617188 2.890625 -27.140625 C 3.390625 -27.660156 4.09375 -27.921875 5 -27.921875 C 5.925781 -27.921875 6.640625 -27.660156 7.140625 -27.140625 C 7.640625 -26.617188 7.890625 -26.003906 7.890625 -25.296875 C 7.890625 -24.554688 7.640625 -23.925781 7.140625 -23.40625 C 6.640625 -22.894531 5.914062 -22.640625 4.96875 -22.640625 Z M 7.3125 0 L 2.703125 0 L 2.703125 -19.59375 L 7.3125 -19.59375 Z M 7.3125 0 "/></g><g transform="translate(219.088927, 70.257328)"><path style="stroke:none" d=""/></g><g transform="translate(228.59751, 70.257328)"><path style="stroke:none" d="M 10.78125 0.59375 C 9.394531 0.59375 8.117188 0.328125 6.953125 -0.203125 C 5.796875 -0.742188 4.796875 -1.488281 3.953125 -2.4375 C 3.117188 -3.394531 2.46875 -4.5 2 -5.75 C 1.539062 -7.007812 1.3125 -8.359375 1.3125 -9.796875 C 1.3125 -11.234375 1.535156 -12.578125 1.984375 -13.828125 C 2.441406 -15.078125 3.09375 -16.175781 3.9375 -17.125 C 4.78125 -18.082031 5.785156 -18.832031 6.953125 -19.375 C 8.117188 -19.914062 9.414062 -20.1875 10.84375 -20.1875 C 11.90625 -20.1875 12.875 -20 13.75 -19.625 C 14.625 -19.25 15.375 -18.769531 16 -18.1875 C 16.625 -17.613281 17.109375 -17.015625 17.453125 -16.390625 L 17.359375 -18.421875 L 17.359375 -26.828125 L 21.953125 -26.828125 L 21.953125 0 L 17.578125 0 L 17.578125 -3.296875 C 17.191406 -2.609375 16.675781 -1.96875 16.03125 -1.375 C 15.382812 -0.789062 14.617188 -0.316406 13.734375 0.046875 C 12.859375 0.410156 11.875 0.59375 10.78125 0.59375 Z M 11.625 -3.65625 C 12.425781 -3.65625 13.175781 -3.8125 13.875 -4.125 C 14.570312 -4.4375 15.179688 -4.867188 15.703125 -5.421875 C 16.234375 -5.984375 16.648438 -6.632812 16.953125 -7.375 C 17.253906 -8.125 17.40625 -8.929688 17.40625 -9.796875 C 17.40625 -10.660156 17.257812 -11.457031 16.96875 -12.1875 C 16.675781 -12.925781 16.265625 -13.578125 15.734375 -14.140625 C 15.203125 -14.703125 14.585938 -15.132812 13.890625 -15.4375 C 13.191406 -15.75 12.4375 -15.90625 11.625 -15.90625 C 10.539062 -15.90625 9.5625 -15.640625 8.6875 -15.109375 C 7.8125 -14.585938 7.117188 -13.867188 6.609375 -12.953125 C 6.097656 -12.046875 5.84375 -10.992188 5.84375 -9.796875 C 5.84375 -8.640625 6.09375 -7.597656 6.59375 -6.671875 C 7.09375 -5.742188 7.773438 -5.007812 8.640625 -4.46875 C 9.515625 -3.925781 10.507812 -3.65625 11.625 -3.65625 Z M 11.625 -3.65625 "/></g><g transform="translate(253.235985, 70.257328)"><path style="stroke:none" d="M 4.96875 -22.640625 C 4.082031 -22.640625 3.390625 -22.894531 2.890625 -23.40625 C 2.390625 -23.925781 2.140625 -24.554688 2.140625 -25.296875 C 2.140625 -26.003906 2.390625 -26.617188 2.890625 -27.140625 C 3.390625 -27.660156 4.09375 -27.921875 5 -27.921875 C 5.925781 -27.921875 6.640625 -27.660156 7.140625 -27.140625 C 7.640625 -26.617188 7.890625 -26.003906 7.890625 -25.296875 C 7.890625 -24.554688 7.640625 -23.925781 7.140625 -23.40625 C 6.640625 -22.894531 5.914062 -22.640625 4.96875 -22.640625 Z M 7.3125 0 L 2.703125 0 L 2.703125 -19.59375 L 7.3125 -19.59375 Z M 7.3125 0 "/></g><g transform="translate(263.240006, 70.257328)"><path style="stroke:none" d="M 9.765625 0.59375 C 8.328125 0.59375 7.078125 0.398438 6.015625 0.015625 C 4.953125 -0.359375 4.070312 -0.867188 3.375 -1.515625 C 2.6875 -2.171875 2.171875 -2.90625 1.828125 -3.71875 C 1.492188 -4.53125 1.328125 -5.367188 1.328125 -6.234375 L 5.75 -6.21875 C 5.789062 -5.320312 6.144531 -4.570312 6.8125 -3.96875 C 7.488281 -3.363281 8.484375 -3.0625 9.796875 -3.0625 C 10.992188 -3.0625 11.875 -3.289062 12.4375 -3.75 C 13 -4.207031 13.28125 -4.804688 13.28125 -5.546875 C 13.28125 -6.109375 13.117188 -6.546875 12.796875 -6.859375 C 12.484375 -7.179688 12.019531 -7.429688 11.40625 -7.609375 C 10.789062 -7.796875 10.035156 -7.953125 9.140625 -8.078125 C 8.203125 -8.203125 7.3125 -8.398438 6.46875 -8.671875 C 5.625 -8.941406 4.878906 -9.3125 4.234375 -9.78125 C 3.585938 -10.25 3.078125 -10.835938 2.703125 -11.546875 C 2.328125 -12.253906 2.140625 -13.117188 2.140625 -14.140625 C 2.140625 -15.347656 2.421875 -16.398438 2.984375 -17.296875 C 3.546875 -18.203125 4.375 -18.910156 5.46875 -19.421875 C 6.570312 -19.929688 7.921875 -20.1875 9.515625 -20.1875 C 11.085938 -20.1875 12.46875 -19.921875 13.65625 -19.390625 C 14.84375 -18.859375 15.765625 -18.117188 16.421875 -17.171875 C 17.085938 -16.234375 17.421875 -15.140625 17.421875 -13.890625 L 12.90625 -13.9375 C 12.851562 -14.65625 12.539062 -15.242188 11.96875 -15.703125 C 11.40625 -16.171875 10.59375 -16.40625 9.53125 -16.40625 C 8.539062 -16.40625 7.816406 -16.191406 7.359375 -15.765625 C 6.898438 -15.335938 6.671875 -14.828125 6.671875 -14.234375 C 6.671875 -13.753906 6.773438 -13.363281 6.984375 -13.0625 C 7.203125 -12.757812 7.609375 -12.507812 8.203125 -12.3125 C 8.796875 -12.125 9.648438 -11.941406 10.765625 -11.765625 C 11.785156 -11.609375 12.734375 -11.398438 13.609375 -11.140625 C 14.484375 -10.890625 15.25 -10.546875 15.90625 -10.109375 C 16.5625 -9.671875 17.070312 -9.101562 17.4375 -8.40625 C 17.800781 -7.71875 17.984375 -6.851562 17.984375 -5.8125 C 17.984375 -4.375 17.625 -3.179688 16.90625 -2.234375 C 16.195312 -1.285156 15.222656 -0.578125 13.984375 -0.109375 C 12.742188 0.359375 11.335938 0.59375 9.765625 0.59375 Z M 9.765625 0.59375 "/></g><g transform="translate(282.333394, 70.257328)"><path style="stroke:none" d="M 4.96875 -22.640625 C 4.082031 -22.640625 3.390625 -22.894531 2.890625 -23.40625 C 2.390625 -23.925781 2.140625 -24.554688 2.140625 -25.296875 C 2.140625 -26.003906 2.390625 -26.617188 2.890625 -27.140625 C 3.390625 -27.660156 4.09375 -27.921875 5 -27.921875 C 5.925781 -27.921875 6.640625 -27.660156 7.140625 -27.140625 C 7.640625 -26.617188 7.890625 -26.003906 7.890625 -25.296875 C 7.890625 -24.554688 7.640625 -23.925781 7.140625 -23.40625 C 6.640625 -22.894531 5.914062 -22.640625 4.96875 -22.640625 Z M 7.3125 0 L 2.703125 0 L 2.703125 -19.59375 L 7.3125 -19.59375 Z M 7.3125 0 "/></g><g transform="translate(292.337415, 70.257328)"><path style="stroke:none" d="M 7.3125 0 L 2.703125 0 L 2.703125 -19.59375 L 7.09375 -19.59375 L 7.09375 -16.546875 C 7.46875 -17.253906 7.984375 -17.878906 8.640625 -18.421875 C 9.304688 -18.972656 10.078125 -19.40625 10.953125 -19.71875 C 11.835938 -20.03125 12.78125 -20.1875 13.78125 -20.1875 C 16.40625 -20.1875 18.375 -19.347656 19.6875 -17.671875 C 21 -16.003906 21.65625 -13.632812 21.65625 -10.5625 L 21.65625 0 L 17.03125 0 L 17.03125 -10.46875 C 17.03125 -12.40625 16.625 -13.800781 15.8125 -14.65625 C 15 -15.507812 13.894531 -15.9375 12.5 -15.9375 C 11.601562 -15.9375 10.757812 -15.707031 9.96875 -15.25 C 9.175781 -14.789062 8.535156 -14.125 8.046875 -13.25 C 7.554688 -12.375 7.3125 -11.289062 7.3125 -10 Z M 7.3125 0 "/></g><g transform="translate(316.537618, 70.257328)"><path style="stroke:none" d="M 4.96875 -22.640625 C 4.082031 -22.640625 3.390625 -22.894531 2.890625 -23.40625 C 2.390625 -23.925781 2.140625 -24.554688 2.140625 -25.296875 C 2.140625 -26.003906 2.390625 -26.617188 2.890625 -27.140625 C 3.390625 -27.660156 4.09375 -27.921875 5 -27.921875 C 5.925781 -27.921875 6.640625 -27.660156 7.140625 -27.140625 C 7.640625 -26.617188 7.890625 -26.003906 7.890625 -25.296875 C 7.890625 -24.554688 7.640625 -23.925781 7.140625 -23.40625 C 6.640625 -22.894531 5.914062 -22.640625 4.96875 -22.640625 Z M 7.3125 0 L 2.703125 0 L 2.703125 -19.59375 L 7.3125 -19.59375 Z M 7.3125 0 "/></g><g transform="translate(326.541639, 70.257328)"><path style="stroke:none" d="M 7.453125 -7.8125 L 4.015625 -7.8125 L 3.375 -13.34375 L 3.375 -25.921875 L 8.125 -25.921875 L 8.125 -13.328125 Z M 5.75 0.453125 C 5.21875 0.453125 4.75 0.335938 4.34375 0.109375 C 3.945312 -0.117188 3.640625 -0.425781 3.421875 -0.8125 C 3.203125 -1.195312 3.09375 -1.617188 3.09375 -2.078125 C 3.09375 -2.546875 3.203125 -2.96875 3.421875 -3.34375 C 3.640625 -3.726562 3.945312 -4.035156 4.34375 -4.265625 C 4.75 -4.503906 5.21875 -4.625 5.75 -4.625 C 6.300781 -4.625 6.78125 -4.503906 7.1875 -4.265625 C 7.59375 -4.035156 7.910156 -3.726562 8.140625 -3.34375 C 8.367188 -2.96875 8.484375 -2.546875 8.484375 -2.078125 C 8.484375 -1.378906 8.234375 -0.78125 7.734375 -0.28125 C 7.242188 0.207031 6.582031 0.453125 5.75 0.453125 Z M 5.75 0.453125 "/></g></g><g style="fill:#ffffff;fill-opacity:1;"><g transform="translate(25.887463, 70.257328)"><path style="stroke:none" d="M 24.1875 -25.921875 L 14.9375 -14.453125 L 25.5 0 L 19.875 0 L 11.828125 -11 L 7.828125 -5.984375 L 7.828125 0 L 3.09375 0 L 3.09375 -25.921875 L 7.828125 -25.921875 L 7.828125 -12.28125 L 18.640625 -25.921875 Z M 24.1875 -25.921875 "/></g></g><g style="fill:#ffffff;fill-opacity:1;"><g transform="translate(50.506882, 70.257328)"><path style="stroke:none" d="M 11.609375 0.59375 C 10.117188 0.59375 8.742188 0.328125 7.484375 -0.203125 C 6.234375 -0.742188 5.144531 -1.488281 4.21875 -2.4375 C 3.300781 -3.394531 2.585938 -4.5 2.078125 -5.75 C 1.566406 -7.007812 1.3125 -8.359375 1.3125 -9.796875 C 1.3125 -11.234375 1.566406 -12.578125 2.078125 -13.828125 C 2.585938 -15.078125 3.300781 -16.175781 4.21875 -17.125 C 5.144531 -18.082031 6.234375 -18.832031 7.484375 -19.375 C 8.742188 -19.914062 10.125 -20.1875 11.625 -20.1875 C 13.132812 -20.1875 14.519531 -19.914062 15.78125 -19.375 C 17.039062 -18.832031 18.132812 -18.082031 19.0625 -17.125 C 19.988281 -16.175781 20.703125 -15.078125 21.203125 -13.828125 C 21.710938 -12.578125 21.96875 -11.234375 21.96875 -9.796875 C 21.96875 -8.347656 21.710938 -7 21.203125 -5.75 C 20.703125 -4.5 19.988281 -3.394531 19.0625 -2.4375 C 18.132812 -1.488281 17.035156 -0.742188 15.765625 -0.203125 C 14.503906 0.328125 13.117188 0.59375 11.609375 0.59375 Z M 11.640625 -3.703125 C 12.742188 -3.703125 13.726562 -3.960938 14.59375 -4.484375 C 15.457031 -5.015625 16.140625 -5.738281 16.640625 -6.65625 C 17.148438 -7.570312 17.40625 -8.617188 17.40625 -9.796875 C 17.40625 -10.972656 17.148438 -12.019531 16.640625 -12.9375 C 16.140625 -13.863281 15.457031 -14.585938 14.59375 -15.109375 C 13.726562 -15.640625 12.742188 -15.90625 11.640625 -15.90625 C 10.546875 -15.90625 9.5625 -15.640625 8.6875 -15.109375 C 7.820312 -14.585938 7.140625 -13.863281 6.640625 -12.9375 C 6.140625 -12.019531 5.890625 -10.972656 5.890625 -9.796875 C 5.890625 -8.617188 6.140625 -7.570312 6.640625 -6.65625 C 7.140625 -5.738281 7.820312 -5.015625 8.6875 -4.484375 C 9.5625 -3.960938 10.546875 -3.703125 11.640625 -3.703125 Z M 11.640625 -3.703125 "/></g><g transform="translate(73.792431, 70.257328)"><path style="stroke:none" d="M 7.3125 0 L 2.703125 0 L 2.703125 -19.59375 L 7.09375 -19.59375 L 7.09375 -16.546875 C 7.46875 -17.253906 7.984375 -17.878906 8.640625 -18.421875 C 9.304688 -18.972656 10.078125 -19.40625 10.953125 -19.71875 C 11.835938 -20.03125 12.78125 -20.1875 13.78125 -20.1875 C 16.40625 -20.1875 18.375 -19.347656 19.6875 -17.671875 C 21 -16.003906 21.65625 -13.632812 21.65625 -10.5625 L 21.65625 0 L 17.03125 0 L 17.03125 -10.46875 C 17.03125 -12.40625 16.625 -13.800781 15.8125 -14.65625 C 15 -15.507812 13.894531 -15.9375 12.5 -15.9375 C 11.601562 -15.9375 10.757812 -15.707031 9.96875 -15.25 C 9.175781 -14.789062 8.535156 -14.125 8.046875 -13.25 C 7.554688 -12.375 7.3125 -11.289062 7.3125 -10 Z M 7.3125 0 "/></g><g transform="translate(97.992634, 70.257328)"><path style="stroke:none" d="M 9.765625 0.59375 C 8.328125 0.59375 7.078125 0.398438 6.015625 0.015625 C 4.953125 -0.359375 4.070312 -0.867188 3.375 -1.515625 C 2.6875 -2.171875 2.171875 -2.90625 1.828125 -3.71875 C 1.492188 -4.53125 1.328125 -5.367188 1.328125 -6.234375 L 5.75 -6.21875 C 5.789062 -5.320312 6.144531 -4.570312 6.8125 -3.96875 C 7.488281 -3.363281 8.484375 -3.0625 9.796875 -3.0625 C 10.992188 -3.0625 11.875 -3.289062 12.4375 -3.75 C 13 -4.207031 13.28125 -4.804688 13.28125 -5.546875 C 13.28125 -6.109375 13.117188 -6.546875 12.796875 -6.859375 C 12.484375 -7.179688 12.019531 -7.429688 11.40625 -7.609375 C 10.789062 -7.796875 10.035156 -7.953125 9.140625 -8.078125 C 8.203125 -8.203125 7.3125 -8.398438 6.46875 -8.671875 C 5.625 -8.941406 4.878906 -9.3125 4.234375 -9.78125 C 3.585938 -10.25 3.078125 -10.835938 2.703125 -11.546875 C 2.328125 -12.253906 2.140625 -13.117188 2.140625 -14.140625 C 2.140625 -15.347656 2.421875 -16.398438 2.984375 -17.296875 C 3.546875 -18.203125 4.375 -18.910156 5.46875 -19.421875 C 6.570312 -19.929688 7.921875 -20.1875 9.515625 -20.1875 C 11.085938 -20.1875 12.46875 -19.921875 13.65625 -19.390625 C 14.84375 -18.859375 15.765625 -18.117188 16.421875 -17.171875 C 17.085938 -16.234375 17.421875 -15.140625 17.421875 -13.890625 L 12.90625 -13.9375 C 12.851562 -14.65625 12.539062 -15.242188 11.96875 -15.703125 C 11.40625 -16.171875 10.59375 -16.40625 9.53125 -16.40625 C 8.539062 -16.40625 7.816406 -16.191406 7.359375 -15.765625 C 6.898438 -15.335938 6.671875 -14.828125 6.671875 -14.234375 C 6.671875 -13.753906 6.773438 -13.363281 6.984375 -13.0625 C 7.203125 -12.757812 7.609375 -12.507812 8.203125 -12.3125 C 8.796875 -12.125 9.648438 -11.941406 10.765625 -11.765625 C 11.785156 -11.609375 12.734375 -11.398438 13.609375 -11.140625 C 14.484375 -10.890625 15.25 -10.546875 15.90625 -10.109375 C 16.5625 -9.671875 17.070312 -9.101562 17.4375 -8.40625 C 17.800781 -7.71875 17.984375 -6.851562 17.984375 -5.8125 C 17.984375 -4.375 17.625 -3.179688 16.90625 -2.234375 C 16.195312 -1.285156 15.222656 -0.578125 13.984375 -0.109375 C 12.742188 0.359375 11.335938 0.59375 9.765625 0.59375 Z M 9.765625 0.59375 "/></g><g transform="translate(117.086023, 70.257328)"><path style="stroke:none" d="M 11.515625 0.59375 C 10.203125 0.59375 8.984375 0.410156 7.859375 0.046875 C 6.742188 -0.316406 5.765625 -0.882812 4.921875 -1.65625 C 4.085938 -2.4375 3.4375 -3.441406 2.96875 -4.671875 C 2.507812 -5.898438 2.28125 -7.382812 2.28125 -9.125 L 2.28125 -19.59375 L 6.859375 -19.59375 L 6.859375 -9.265625 C 6.859375 -7.460938 7.242188 -6.082031 8.015625 -5.125 C 8.796875 -4.175781 9.953125 -3.703125 11.484375 -3.703125 C 13.035156 -3.703125 14.191406 -4.179688 14.953125 -5.140625 C 15.722656 -6.097656 16.109375 -7.472656 16.109375 -9.265625 L 16.109375 -19.59375 L 20.703125 -19.59375 L 20.703125 -9.125 C 20.703125 -7.382812 20.46875 -5.898438 20 -4.671875 C 19.539062 -3.441406 18.890625 -2.4375 18.046875 -1.65625 C 17.210938 -0.882812 16.238281 -0.316406 15.125 0.046875 C 14.007812 0.410156 12.804688 0.59375 11.515625 0.59375 Z M 11.515625 0.59375 "/></g><g transform="translate(140.066688, 70.257328)"><path style="stroke:none" d="M 7.3125 0 L 2.703125 0 L 2.703125 -26.859375 L 7.3125 -26.859375 Z M 7.3125 0 "/></g><g transform="translate(150.070709, 70.257328)"><path style="stroke:none" d="M 14.75 0 L 10.765625 0 C 10.179688 0 9.582031 -0.0507812 8.96875 -0.15625 C 8.351562 -0.269531 7.765625 -0.472656 7.203125 -0.765625 C 6.640625 -1.054688 6.140625 -1.476562 5.703125 -2.03125 C 5.265625 -2.582031 4.914062 -3.300781 4.65625 -4.1875 C 4.394531 -5.070312 4.265625 -6.160156 4.265625 -7.453125 L 4.265625 -15.625 L 0.203125 -15.625 L 0.203125 -19.59375 L 4.265625 -19.59375 L 4.265625 -25.328125 L 8.875 -25.359375 L 8.875 -19.59375 L 14.75 -19.59375 L 14.75 -15.625 L 8.875 -15.625 L 8.875 -7.234375 C 8.875 -6.328125 9.007812 -5.625 9.28125 -5.125 C 9.550781 -4.632812 9.90625 -4.296875 10.34375 -4.109375 C 10.78125 -3.921875 11.238281 -3.828125 11.71875 -3.828125 L 14.75 -3.828125 Z M 14.75 0 "/></g></g><g style="fill:#ffffff;fill-opacity:1;"><g transform="translate(165.314932, 70.257328)"><path style="stroke:none" d="M 10.546875 0.59375 C 9.222656 0.59375 8 0.328125 6.875 -0.203125 C 5.75 -0.742188 4.769531 -1.488281 3.9375 -2.4375 C 3.101562 -3.394531 2.457031 -4.5 2 -5.75 C 1.539062 -7.007812 1.3125 -8.359375 1.3125 -9.796875 C 1.3125 -11.234375 1.539062 -12.578125 2 -13.828125 C 2.46875 -15.078125 3.117188 -16.175781 3.953125 -17.125 C 4.785156 -18.082031 5.757812 -18.832031 6.875 -19.375 C 8 -19.914062 9.210938 -20.1875 10.515625 -20.1875 C 12.117188 -20.1875 13.539062 -19.835938 14.78125 -19.140625 C 16.03125 -18.453125 16.96875 -17.5 17.59375 -16.28125 L 17.59375 -19.59375 L 21.96875 -19.59375 L 21.96875 0 L 17.59375 0 L 17.59375 -3.296875 C 16.957031 -2.078125 16.019531 -1.125 14.78125 -0.4375 C 13.539062 0.25 12.128906 0.59375 10.546875 0.59375 Z M 11.640625 -3.671875 C 12.441406 -3.671875 13.191406 -3.828125 13.890625 -4.140625 C 14.585938 -4.453125 15.203125 -4.882812 15.734375 -5.4375 C 16.265625 -5.988281 16.675781 -6.632812 16.96875 -7.375 C 17.257812 -8.125 17.40625 -8.929688 17.40625 -9.796875 C 17.40625 -10.648438 17.253906 -11.445312 16.953125 -12.1875 C 16.648438 -12.925781 16.238281 -13.578125 15.71875 -14.140625 C 15.195312 -14.703125 14.585938 -15.132812 13.890625 -15.4375 C 13.191406 -15.75 12.441406 -15.90625 11.640625 -15.90625 C 10.585938 -15.90625 9.625 -15.648438 8.75 -15.140625 C 7.882812 -14.640625 7.191406 -13.929688 6.671875 -13.015625 C 6.148438 -12.097656 5.890625 -11.023438 5.890625 -9.796875 C 5.890625 -8.523438 6.148438 -7.429688 6.671875 -6.515625 C 7.203125 -5.597656 7.90625 -4.894531 8.78125 -4.40625 C 9.65625 -3.914062 10.609375 -3.671875 11.640625 -3.671875 Z M 11.640625 -3.671875 "/></g><g transform="translate(189.991517, 70.257328)"><path style="stroke:none" d="M 9.765625 0.59375 C 8.328125 0.59375 7.078125 0.398438 6.015625 0.015625 C 4.953125 -0.359375 4.070312 -0.867188 3.375 -1.515625 C 2.6875 -2.171875 2.171875 -2.90625 1.828125 -3.71875 C 1.492188 -4.53125 1.328125 -5.367188 1.328125 -6.234375 L 5.75 -6.21875 C 5.789062 -5.320312 6.144531 -4.570312 6.8125 -3.96875 C 7.488281 -3.363281 8.484375 -3.0625 9.796875 -3.0625 C 10.992188 -3.0625 11.875 -3.289062 12.4375 -3.75 C 13 -4.207031 13.28125 -4.804688 13.28125 -5.546875 C 13.28125 -6.109375 13.117188 -6.546875 12.796875 -6.859375 C 12.484375 -7.179688 12.019531 -7.429688 11.40625 -7.609375 C 10.789062 -7.796875 10.035156 -7.953125 9.140625 -8.078125 C 8.203125 -8.203125 7.3125 -8.398438 6.46875 -8.671875 C 5.625 -8.941406 4.878906 -9.3125 4.234375 -9.78125 C 3.585938 -10.25 3.078125 -10.835938 2.703125 -11.546875 C 2.328125 -12.253906 2.140625 -13.117188 2.140625 -14.140625 C 2.140625 -15.347656 2.421875 -16.398438 2.984375 -17.296875 C 3.546875 -18.203125 4.375 -18.910156 5.46875 -19.421875 C 6.570312 -19.929688 7.921875 -20.1875 9.515625 -20.1875 C 11.085938 -20.1875 12.46875 -19.921875 13.65625 -19.390625 C 14.84375 -18.859375 15.765625 -18.117188 16.421875 -17.171875 C 17.085938 -16.234375 17.421875 -15.140625 17.421875 -13.890625 L 12.90625 -13.9375 C 12.851562 -14.65625 12.539062 -15.242188 11.96875 -15.703125 C 11.40625 -16.171875 10.59375 -16.40625 9.53125 -16.40625 C 8.539062 -16.40625 7.816406 -16.191406 7.359375 -15.765625 C 6.898438 -15.335938 6.671875 -14.828125 6.671875 -14.234375 C 6.671875 -13.753906 6.773438 -13.363281 6.984375 -13.0625 C 7.203125 -12.757812 7.609375 -12.507812 8.203125 -12.3125 C 8.796875 -12.125 9.648438 -11.941406 10.765625 -11.765625 C 11.785156 -11.609375 12.734375 -11.398438 13.609375 -11.140625 C 14.484375 -10.890625 15.25 -10.546875 15.90625 -10.109375 C 16.5625 -9.671875 17.070312 -9.101562 17.4375 -8.40625 C 17.800781 -7.71875 17.984375 -6.851562 17.984375 -5.8125 C 17.984375 -4.375 17.625 -3.179688 16.90625 -2.234375 C 16.195312 -1.285156 15.222656 -0.578125 13.984375 -0.109375 C 12.742188 0.359375 11.335938 0.59375 9.765625 0.59375 Z M 9.765625 0.59375 "/></g><g transform="translate(209.084906, 70.257328)"><path style="stroke:none" d="M 4.96875 -22.640625 C 4.082031 -22.640625 3.390625 -22.894531 2.890625 -23.40625 C 2.390625 -23.925781 2.140625 -24.554688 2.140625 -25.296875 C 2.140625 -26.003906 2.390625 -26.617188 2.890625 -27.140625 C 3.390625 -27.660156 4.09375 -27.921875 5 -27.921875 C 5.925781 -27.921875 6.640625 -27.660156 7.140625 -27.140625 C 7.640625 -26.617188 7.890625 -26.003906 7.890625 -25.296875 C 7.890625 -24.554688 7.640625 -23.925781 7.140625 -23.40625 C 6.640625 -22.894531 5.914062 -22.640625 4.96875 -22.640625 Z M 7.3125 0 L 2.703125 0 L 2.703125 -19.59375 L 7.3125 -19.59375 Z M 7.3125 0 "/></g><g transform="translate(219.088927, 70.257328)"><path style="stroke:none" d=""/></g><g transform="translate(228.59751, 70.257328)"><path style="stroke:none" d="M 10.78125 0.59375 C 9.394531 0.59375 8.117188 0.328125 6.953125 -0.203125 C 5.796875 -0.742188 4.796875 -1.488281 3.953125 -2.4375 C 3.117188 -3.394531 2.46875 -4.5 2 -5.75 C 1.539062 -7.007812 1.3125 -8.359375 1.3125 -9.796875 C 1.3125 -11.234375 1.535156 -12.578125 1.984375 -13.828125 C 2.441406 -15.078125 3.09375 -16.175781 3.9375 -17.125 C 4.78125 -18.082031 5.785156 -18.832031 6.953125 -19.375 C 8.117188 -19.914062 9.414062 -20.1875 10.84375 -20.1875 C 11.90625 -20.1875 12.875 -20 13.75 -19.625 C 14.625 -19.25 15.375 -18.769531 16 -18.1875 C 16.625 -17.613281 17.109375 -17.015625 17.453125 -16.390625 L 17.359375 -18.421875 L 17.359375 -26.828125 L 21.953125 -26.828125 L 21.953125 0 L 17.578125 0 L 17.578125 -3.296875 C 17.191406 -2.609375 16.675781 -1.96875 16.03125 -1.375 C 15.382812 -0.789062 14.617188 -0.316406 13.734375 0.046875 C 12.859375 0.410156 11.875 0.59375 10.78125 0.59375 Z M 11.625 -3.65625 C 12.425781 -3.65625 13.175781 -3.8125 13.875 -4.125 C 14.570312 -4.4375 15.179688 -4.867188 15.703125 -5.421875 C 16.234375 -5.984375 16.648438 -6.632812 16.953125 -7.375 C 17.253906 -8.125 17.40625 -8.929688 17.40625 -9.796875 C 17.40625 -10.660156 17.257812 -11.457031 16.96875 -12.1875 C 16.675781 -12.925781 16.265625 -13.578125 15.734375 -14.140625 C 15.203125 -14.703125 14.585938 -15.132812 13.890625 -15.4375 C 13.191406 -15.75 12.4375 -15.90625 11.625 -15.90625 C 10.539062 -15.90625 9.5625 -15.640625 8.6875 -15.109375 C 7.8125 -14.585938 7.117188 -13.867188 6.609375 -12.953125 C 6.097656 -12.046875 5.84375 -10.992188 5.84375 -9.796875 C 5.84375 -8.640625 6.09375 -7.597656 6.59375 -6.671875 C 7.09375 -5.742188 7.773438 -5.007812 8.640625 -4.46875 C 9.515625 -3.925781 10.507812 -3.65625 11.625 -3.65625 Z M 11.625 -3.65625 "/></g><g transform="translate(253.235985, 70.257328)"><path style="stroke:none" d="M 4.96875 -22.640625 C 4.082031 -22.640625 3.390625 -22.894531 2.890625 -23.40625 C 2.390625 -23.925781 2.140625 -24.554688 2.140625 -25.296875 C 2.140625 -26.003906 2.390625 -26.617188 2.890625 -27.140625 C 3.390625 -27.660156 4.09375 -27.921875 5 -27.921875 C 5.925781 -27.921875 6.640625 -27.660156 7.140625 -27.140625 C 7.640625 -26.617188 7.890625 -26.003906 7.890625 -25.296875 C 7.890625 -24.554688 7.640625 -23.925781 7.140625 -23.40625 C 6.640625 -22.894531 5.914062 -22.640625 4.96875 -22.640625 Z M 7.3125 0 L 2.703125 0 L 2.703125 -19.59375 L 7.3125 -19.59375 Z M 7.3125 0 "/></g><g transform="translate(263.240006, 70.257328)"><path style="stroke:none" d="M 9.765625 0.59375 C 8.328125 0.59375 7.078125 0.398438 6.015625 0.015625 C 4.953125 -0.359375 4.070312 -0.867188 3.375 -1.515625 C 2.6875 -2.171875 2.171875 -2.90625 1.828125 -3.71875 C 1.492188 -4.53125 1.328125 -5.367188 1.328125 -6.234375 L 5.75 -6.21875 C 5.789062 -5.320312 6.144531 -4.570312 6.8125 -3.96875 C 7.488281 -3.363281 8.484375 -3.0625 9.796875 -3.0625 C 10.992188 -3.0625 11.875 -3.289062 12.4375 -3.75 C 13 -4.207031 13.28125 -4.804688 13.28125 -5.546875 C 13.28125 -6.109375 13.117188 -6.546875 12.796875 -6.859375 C 12.484375 -7.179688 12.019531 -7.429688 11.40625 -7.609375 C 10.789062 -7.796875 10.035156 -7.953125 9.140625 -8.078125 C 8.203125 -8.203125 7.3125 -8.398438 6.46875 -8.671875 C 5.625 -8.941406 4.878906 -9.3125 4.234375 -9.78125 C 3.585938 -10.25 3.078125 -10.835938 2.703125 -11.546875 C 2.328125 -12.253906 2.140625 -13.117188 2.140625 -14.140625 C 2.140625 -15.347656 2.421875 -16.398438 2.984375 -17.296875 C 3.546875 -18.203125 4.375 -18.910156 5.46875 -19.421875 C 6.570312 -19.929688 7.921875 -20.1875 9.515625 -20.1875 C 11.085938 -20.1875 12.46875 -19.921875 13.65625 -19.390625 C 14.84375 -18.859375 15.765625 -18.117188 16.421875 -17.171875 C 17.085938 -16.234375 17.421875 -15.140625 17.421875 -13.890625 L 12.90625 -13.9375 C 12.851562 -14.65625 12.539062 -15.242188 11.96875 -15.703125 C 11.40625 -16.171875 10.59375 -16.40625 9.53125 -16.40625 C 8.539062 -16.40625 7.816406 -16.191406 7.359375 -15.765625 C 6.898438 -15.335938 6.671875 -14.828125 6.671875 -14.234375 C 6.671875 -13.753906 6.773438 -13.363281 6.984375 -13.0625 C 7.203125 -12.757812 7.609375 -12.507812 8.203125 -12.3125 C 8.796875 -12.125 9.648438 -11.941406 10.765625 -11.765625 C 11.785156 -11.609375 12.734375 -11.398438 13.609375 -11.140625 C 14.484375 -10.890625 15.25 -10.546875 15.90625 -10.109375 C 16.5625 -9.671875 17.070312 -9.101562 17.4375 -8.40625 C 17.800781 -7.71875 17.984375 -6.851562 17.984375 -5.8125 C 17.984375 -4.375 17.625 -3.179688 16.90625 -2.234375 C 16.195312 -1.285156 15.222656 -0.578125 13.984375 -0.109375 C 12.742188 0.359375 11.335938 0.59375 9.765625 0.59375 Z M 9.765625 0.59375 "/></g><g transform="translate(282.333394, 70.257328)"><path style="stroke:none" d="M 4.96875 -22.640625 C 4.082031 -22.640625 3.390625 -22.894531 2.890625 -23.40625 C 2.390625 -23.925781 2.140625 -24.554688 2.140625 -25.296875 C 2.140625 -26.003906 2.390625 -26.617188 2.890625 -27.140625 C 3.390625 -27.660156 4.09375 -27.921875 5 -27.921875 C 5.925781 -27.921875 6.640625 -27.660156 7.140625 -27.140625 C 7.640625 -26.617188 7.890625 -26.003906 7.890625 -25.296875 C 7.890625 -24.554688 7.640625 -23.925781 7.140625 -23.40625 C 6.640625 -22.894531 5.914062 -22.640625 4.96875 -22.640625 Z M 7.3125 0 L 2.703125 0 L 2.703125 -19.59375 L 7.3125 -19.59375 Z M 7.3125 0 "/></g><g transform="translate(292.337415, 70.257328)"><path style="stroke:none" d="M 7.3125 0 L 2.703125 0 L 2.703125 -19.59375 L 7.09375 -19.59375 L 7.09375 -16.546875 C 7.46875 -17.253906 7.984375 -17.878906 8.640625 -18.421875 C 9.304688 -18.972656 10.078125 -19.40625 10.953125 -19.71875 C 11.835938 -20.03125 12.78125 -20.1875 13.78125 -20.1875 C 16.40625 -20.1875 18.375 -19.347656 19.6875 -17.671875 C 21 -16.003906 21.65625 -13.632812 21.65625 -10.5625 L 21.65625 0 L 17.03125 0 L 17.03125 -10.46875 C 17.03125 -12.40625 16.625 -13.800781 15.8125 -14.65625 C 15 -15.507812 13.894531 -15.9375 12.5 -15.9375 C 11.601562 -15.9375 10.757812 -15.707031 9.96875 -15.25 C 9.175781 -14.789062 8.535156 -14.125 8.046875 -13.25 C 7.554688 -12.375 7.3125 -11.289062 7.3125 -10 Z M 7.3125 0 "/></g><g transform="translate(316.537618, 70.257328)"><path style="stroke:none" d="M 4.96875 -22.640625 C 4.082031 -22.640625 3.390625 -22.894531 2.890625 -23.40625 C 2.390625 -23.925781 2.140625 -24.554688 2.140625 -25.296875 C 2.140625 -26.003906 2.390625 -26.617188 2.890625 -27.140625 C 3.390625 -27.660156 4.09375 -27.921875 5 -27.921875 C 5.925781 -27.921875 6.640625 -27.660156 7.140625 -27.140625 C 7.640625 -26.617188 7.890625 -26.003906 7.890625 -25.296875 C 7.890625 -24.554688 7.640625 -23.925781 7.140625 -23.40625 C 6.640625 -22.894531 5.914062 -22.640625 4.96875 -22.640625 Z M 7.3125 0 L 2.703125 0 L 2.703125 -19.59375 L 7.3125 -19.59375 Z M 7.3125 0 "/></g><g transform="translate(326.541639, 70.257328)"><path style="stroke:none" d="M 7.453125 -7.8125 L 4.015625 -7.8125 L 3.375 -13.34375 L 3.375 -25.921875 L 8.125 -25.921875 L 8.125 -13.328125 Z M 5.75 0.453125 C 5.21875 0.453125 4.75 0.335938 4.34375 0.109375 C 3.945312 -0.117188 3.640625 -0.425781 3.421875 -0.8125 C 3.203125 -1.195312 3.09375 -1.617188 3.09375 -2.078125 C 3.09375 -2.546875 3.203125 -2.96875 3.421875 -3.34375 C 3.640625 -3.726562 3.945312 -4.035156 4.34375 -4.265625 C 4.75 -4.503906 5.21875 -4.625 5.75 -4.625 C 6.300781 -4.625 6.78125 -4.503906 7.1875 -4.265625 C 7.59375 -4.035156 7.910156 -3.726562 8.140625 -3.34375 C 8.367188 -2.96875 8.484375 -2.546875 8.484375 -2.078125 C 8.484375 -1.378906 8.234375 -0.78125 7.734375 -0.28125 C 7.242188 0.207031 6.582031 0.453125 5.75 0.453125 Z M 5.75 0.453125 "/></g></g></g></svg>