<svg xmlns="http://www.w3.org/2000/svg" xmlns:xlink="http://www.w3.org/1999/xlink" width="300" zoomAndPan="magnify" viewBox="0 0 224.87999 51.749998" height="69" preserveAspectRatio="xMidYMid meet" version="1.0"><defs><g/></defs><g fill="#004aad" fill-opacity="1"><g transform="translate(0.480864, 34.197164)"><g><path d="M 6.703125 -4.109375 L 13.6875 -4.109375 L 13.6875 0 L 2.0625 0 L 2.0625 -21.046875 L 6.703125 -21.046875 Z M 6.703125 -4.109375 "/></g></g></g><g fill="#004aad" fill-opacity="1"><g transform="translate(15.121007, 34.197164)"><g><path d="M 12.109375 0.28125 C 10.609375 0.28125 9.207031 0 7.90625 -0.5625 C 6.613281 -1.125 5.46875 -1.898438 4.46875 -2.890625 C 3.476562 -3.890625 2.703125 -5.035156 2.140625 -6.328125 C 1.578125 -7.628906 1.296875 -9.023438 1.296875 -10.515625 C 1.296875 -12.015625 1.578125 -13.410156 2.140625 -14.703125 C 2.703125 -16.003906 3.476562 -17.148438 4.46875 -18.140625 C 5.46875 -19.140625 6.613281 -19.921875 7.90625 -20.484375 C 9.207031 -21.046875 10.609375 -21.328125 12.109375 -21.328125 C 13.597656 -21.328125 15 -21.046875 16.3125 -20.484375 C 17.625 -19.921875 18.769531 -19.140625 19.75 -18.140625 C 20.726562 -17.148438 21.5 -16.003906 22.0625 -14.703125 C 22.625 -13.410156 22.90625 -12.015625 22.90625 -10.515625 C 22.90625 -9.023438 22.625 -7.628906 22.0625 -6.328125 C 21.5 -5.035156 20.726562 -3.890625 19.75 -2.890625 C 18.769531 -1.898438 17.625 -1.125 16.3125 -0.5625 C 15 0 13.597656 0.28125 12.109375 0.28125 Z M 12.109375 -4.25 C 13.296875 -4.25 14.363281 -4.519531 15.3125 -5.0625 C 16.257812 -5.613281 17.003906 -6.363281 17.546875 -7.3125 C 18.097656 -8.257812 18.375 -9.328125 18.375 -10.515625 C 18.375 -11.710938 18.097656 -12.785156 17.546875 -13.734375 C 17.003906 -14.679688 16.257812 -15.425781 15.3125 -15.96875 C 14.363281 -16.519531 13.296875 -16.796875 12.109375 -16.796875 C 10.929688 -16.796875 9.867188 -16.519531 8.921875 -15.96875 C 7.972656 -15.425781 7.222656 -14.679688 6.671875 -13.734375 C 6.128906 -12.785156 5.859375 -11.710938 5.859375 -10.515625 C 5.859375 -9.328125 6.128906 -8.257812 6.671875 -7.3125 C 7.222656 -6.363281 7.972656 -5.613281 8.921875 -5.0625 C 9.867188 -4.519531 10.929688 -4.25 12.109375 -4.25 Z M 12.109375 -4.25 "/></g></g></g><g fill="#004aad" fill-opacity="1"><g transform="translate(40.243056, 34.197164)"><g><path d="M 12.109375 -11.546875 L 22.9375 -11.546875 L 22.9375 -10.515625 C 22.9375 -9.023438 22.65625 -7.628906 22.09375 -6.328125 C 21.53125 -5.035156 20.753906 -3.890625 19.765625 -2.890625 C 18.773438 -1.898438 17.628906 -1.125 16.328125 -0.5625 C 15.023438 0 13.628906 0.28125 12.140625 0.28125 C 10.640625 0.28125 9.234375 0 7.921875 -0.5625 C 6.617188 -1.125 5.472656 -1.898438 4.484375 -2.890625 C 3.503906 -3.890625 2.734375 -5.035156 2.171875 -6.328125 C 1.609375 -7.628906 1.328125 -9.023438 1.328125 -10.515625 C 1.328125 -12.015625 1.609375 -13.410156 2.171875 -14.703125 C 2.734375 -16.003906 3.503906 -17.148438 4.484375 -18.140625 C 5.472656 -19.140625 6.617188 -19.921875 7.921875 -20.484375 C 9.234375 -21.046875 10.640625 -21.328125 12.140625 -21.328125 C 14.222656 -21.328125 16.109375 -20.796875 17.796875 -19.734375 C 19.492188 -18.671875 20.800781 -17.273438 21.71875 -15.546875 L 17.71875 -13.46875 C 17.195312 -14.476562 16.445312 -15.285156 15.46875 -15.890625 C 14.488281 -16.492188 13.378906 -16.796875 12.140625 -16.796875 C 10.972656 -16.796875 9.90625 -16.519531 8.9375 -15.96875 C 7.976562 -15.425781 7.222656 -14.679688 6.671875 -13.734375 C 6.128906 -12.785156 5.859375 -11.710938 5.859375 -10.515625 C 5.859375 -9.328125 6.128906 -8.257812 6.671875 -7.3125 C 7.222656 -6.363281 7.976562 -5.613281 8.9375 -5.0625 C 9.90625 -4.519531 10.972656 -4.25 12.140625 -4.25 C 13.441406 -4.25 14.601562 -4.585938 15.625 -5.265625 C 16.644531 -5.941406 17.398438 -6.828125 17.890625 -7.921875 L 12.109375 -7.921875 Z M 12.109375 -11.546875 "/></g></g></g><g fill="#004aad" fill-opacity="1"><g transform="translate(65.400161, 34.197164)"><g><path d="M 12.109375 0.28125 C 10.609375 0.28125 9.207031 0 7.90625 -0.5625 C 6.613281 -1.125 5.46875 -1.898438 4.46875 -2.890625 C 3.476562 -3.890625 2.703125 -5.035156 2.140625 -6.328125 C 1.578125 -7.628906 1.296875 -9.023438 1.296875 -10.515625 C 1.296875 -12.015625 1.578125 -13.410156 2.140625 -14.703125 C 2.703125 -16.003906 3.476562 -17.148438 4.46875 -18.140625 C 5.46875 -19.140625 6.613281 -19.921875 7.90625 -20.484375 C 9.207031 -21.046875 10.609375 -21.328125 12.109375 -21.328125 C 13.597656 -21.328125 15 -21.046875 16.3125 -20.484375 C 17.625 -19.921875 18.769531 -19.140625 19.75 -18.140625 C 20.726562 -17.148438 21.5 -16.003906 22.0625 -14.703125 C 22.625 -13.410156 22.90625 -12.015625 22.90625 -10.515625 C 22.90625 -9.023438 22.625 -7.628906 22.0625 -6.328125 C 21.5 -5.035156 20.726562 -3.890625 19.75 -2.890625 C 18.769531 -1.898438 17.625 -1.125 16.3125 -0.5625 C 15 0 13.597656 0.28125 12.109375 0.28125 Z M 12.109375 -4.25 C 13.296875 -4.25 14.363281 -4.519531 15.3125 -5.0625 C 16.257812 -5.613281 17.003906 -6.363281 17.546875 -7.3125 C 18.097656 -8.257812 18.375 -9.328125 18.375 -10.515625 C 18.375 -11.710938 18.097656 -12.785156 17.546875 -13.734375 C 17.003906 -14.679688 16.257812 -15.425781 15.3125 -15.96875 C 14.363281 -16.519531 13.296875 -16.796875 12.109375 -16.796875 C 10.929688 -16.796875 9.867188 -16.519531 8.921875 -15.96875 C 7.972656 -15.425781 7.222656 -14.679688 6.671875 -13.734375 C 6.128906 -12.785156 5.859375 -11.710938 5.859375 -10.515625 C 5.859375 -9.328125 6.128906 -8.257812 6.671875 -7.3125 C 7.222656 -6.363281 7.972656 -5.613281 8.921875 -5.0625 C 9.867188 -4.519531 10.929688 -4.25 12.109375 -4.25 Z M 12.109375 -4.25 "/></g></g></g><g fill="#004aad" fill-opacity="1"><g transform="translate(90.52221, 34.197164)"><g/></g></g><g fill="#004aad" fill-opacity="1"><g transform="translate(99.833762, 34.197164)"><g><path d="M 20.421875 -21.046875 L 25.390625 -21.046875 L 25.390625 0 L 20.765625 0 L 20.765625 -12.515625 L 15.046875 0 L 12.375 0 L 6.703125 -12.5625 L 6.703125 0 L 2.0625 0 L 2.0625 -21.046875 L 7.078125 -21.046875 L 13.71875 -6.484375 Z M 20.421875 -21.046875 "/></g></g></g><g fill="#004aad" fill-opacity="1"><g transform="translate(128.18102, 34.197164)"><g><path d="M 2.25 0 L 2.25 -21.046875 L 6.875 -21.046875 L 6.875 0 Z M 2.25 0 "/></g></g></g><g fill="#004aad" fill-opacity="1"><g transform="translate(138.158646, 34.197164)"><g><path d="M 15.046875 -21.046875 L 15.046875 -16.9375 L 9.75 -16.9375 L 9.75 0 L 5.15625 0 L 5.15625 -16.9375 L -0.171875 -16.9375 L -0.171875 -21.046875 Z M 15.046875 -21.046875 "/></g></g></g><g fill="#004aad" fill-opacity="1"><g transform="translate(153.920602, 34.197164)"><g><path d="M 13.046875 -8.671875 L 18.9375 0 L 13.75 0 L 8.5625 -8.140625 L 6.703125 -8.140625 L 6.703125 0 L 2.0625 0 L 2.0625 -21.046875 L 11.015625 -21.046875 C 12.234375 -21.046875 13.304688 -20.757812 14.234375 -20.1875 C 15.171875 -19.613281 15.914062 -18.832031 16.46875 -17.84375 C 17.019531 -16.863281 17.296875 -15.78125 17.296875 -14.59375 C 17.296875 -13.164062 16.894531 -11.910156 16.09375 -10.828125 C 15.300781 -9.753906 14.285156 -9.035156 13.046875 -8.671875 Z M 10.3125 -11.96875 C 11.0625 -11.96875 11.675781 -12.195312 12.15625 -12.65625 C 12.632812 -13.125 12.875 -13.722656 12.875 -14.453125 C 12.875 -15.179688 12.632812 -15.773438 12.15625 -16.234375 C 11.675781 -16.703125 11.0625 -16.9375 10.3125 -16.9375 L 6.703125 -16.9375 L 6.703125 -11.96875 Z M 10.3125 -11.96875 "/></g></g></g><g fill="#004aad" fill-opacity="1"><g transform="translate(173.573836, 34.197164)"><g><path d="M 14.9375 0 L 13.640625 -3.96875 L 5.78125 -3.96875 L 4.484375 0 L -0.453125 0 L 7.125 -21.046875 L 12.3125 -21.046875 L 19.890625 0 Z M 7.015625 -7.828125 L 12.421875 -7.828125 L 9.71875 -16.171875 Z M 7.015625 -7.828125 "/></g></g></g><g fill="#004aad" fill-opacity="1"><g transform="translate(193.893143, 34.197164)"><g/></g></g><g fill="#004aad" fill-opacity="1"><g transform="translate(203.204695, 34.197164)"><g><path d="M 4.0625 0 L 4.0625 -17.078125 L 0.875 -17.078125 L 0.875 -21.046875 L 8.5625 -21.046875 L 8.5625 0 Z M 4.0625 0 "/></g></g></g></svg>