<svg xmlns="http://www.w3.org/2000/svg" xmlns:xlink="http://www.w3.org/1999/xlink" width="300" zoomAndPan="magnify" viewBox="0 0 224.87999 55.5" height="74" preserveAspectRatio="xMidYMid meet" version="1.0"><defs><g/><clipPath id="aba201f5e8"><path d="M 211 13 L 223.816406 13 L 223.816406 36 L 211 36 Z M 211 13 " clip-rule="nonzero"/></clipPath></defs><g fill="#004aad" fill-opacity="1"><g transform="translate(-0.918053, 35.003869)"><g><path d="M 6.953125 -4.265625 L 14.203125 -4.265625 L 14.203125 0 L 2.140625 0 L 2.140625 -21.84375 L 6.953125 -21.84375 Z M 6.953125 -4.265625 "/></g></g></g><g fill="#004aad" fill-opacity="1"><g transform="translate(14.283285, 35.003869)"><g><path d="M 12.5625 0.296875 C 11.007812 0.296875 9.554688 0.00390625 8.203125 -0.578125 C 6.859375 -1.160156 5.671875 -1.96875 4.640625 -3 C 3.609375 -4.03125 2.800781 -5.21875 2.21875 -6.5625 C 1.632812 -7.914062 1.34375 -9.367188 1.34375 -10.921875 C 1.34375 -12.472656 1.632812 -13.921875 2.21875 -15.265625 C 2.800781 -16.617188 3.609375 -17.8125 4.640625 -18.84375 C 5.671875 -19.875 6.859375 -20.679688 8.203125 -21.265625 C 9.554688 -21.847656 11.007812 -22.140625 12.5625 -22.140625 C 14.113281 -22.140625 15.566406 -21.847656 16.921875 -21.265625 C 18.285156 -20.679688 19.476562 -19.875 20.5 -18.84375 C 21.519531 -17.8125 22.316406 -16.617188 22.890625 -15.265625 C 23.472656 -13.921875 23.765625 -12.472656 23.765625 -10.921875 C 23.765625 -9.367188 23.472656 -7.914062 22.890625 -6.5625 C 22.316406 -5.21875 21.519531 -4.03125 20.5 -3 C 19.476562 -1.96875 18.285156 -1.160156 16.921875 -0.578125 C 15.566406 0.00390625 14.113281 0.296875 12.5625 0.296875 Z M 12.5625 -4.40625 C 13.800781 -4.40625 14.910156 -4.6875 15.890625 -5.25 C 16.867188 -5.820312 17.644531 -6.597656 18.21875 -7.578125 C 18.789062 -8.566406 19.078125 -9.679688 19.078125 -10.921875 C 19.078125 -12.160156 18.789062 -13.269531 18.21875 -14.25 C 17.644531 -15.238281 16.867188 -16.015625 15.890625 -16.578125 C 14.910156 -17.148438 13.800781 -17.4375 12.5625 -17.4375 C 11.34375 -17.4375 10.242188 -17.148438 9.265625 -16.578125 C 8.285156 -16.015625 7.507812 -15.238281 6.9375 -14.25 C 6.363281 -13.269531 6.078125 -12.160156 6.078125 -10.921875 C 6.078125 -9.679688 6.363281 -8.566406 6.9375 -7.578125 C 7.507812 -6.597656 8.285156 -5.820312 9.265625 -5.25 C 10.242188 -4.6875 11.34375 -4.40625 12.5625 -4.40625 Z M 12.5625 -4.40625 "/></g></g></g><g fill="#004aad" fill-opacity="1"><g transform="translate(40.368329, 35.003869)"><g><path d="M 12.5625 -11.984375 L 23.8125 -11.984375 L 23.8125 -10.921875 C 23.8125 -9.367188 23.519531 -7.914062 22.9375 -6.5625 C 22.351562 -5.21875 21.546875 -4.03125 20.515625 -3 C 19.484375 -1.96875 18.289062 -1.160156 16.9375 -0.578125 C 15.59375 0.00390625 14.144531 0.296875 12.59375 0.296875 C 11.039062 0.296875 9.582031 0.00390625 8.21875 -0.578125 C 6.863281 -1.160156 5.675781 -1.96875 4.65625 -3 C 3.632812 -4.03125 2.832031 -5.21875 2.25 -6.5625 C 1.675781 -7.914062 1.390625 -9.367188 1.390625 -10.921875 C 1.390625 -12.472656 1.675781 -13.921875 2.25 -15.265625 C 2.832031 -16.617188 3.632812 -17.8125 4.65625 -18.84375 C 5.675781 -19.875 6.863281 -20.679688 8.21875 -21.265625 C 9.582031 -21.847656 11.039062 -22.140625 12.59375 -22.140625 C 14.757812 -22.140625 16.71875 -21.585938 18.46875 -20.484375 C 20.226562 -19.378906 21.582031 -17.925781 22.53125 -16.125 L 18.390625 -13.984375 C 17.847656 -15.023438 17.066406 -15.859375 16.046875 -16.484375 C 15.035156 -17.117188 13.882812 -17.4375 12.59375 -17.4375 C 11.382812 -17.4375 10.28125 -17.148438 9.28125 -16.578125 C 8.289062 -16.015625 7.507812 -15.238281 6.9375 -14.25 C 6.363281 -13.269531 6.078125 -12.160156 6.078125 -10.921875 C 6.078125 -9.679688 6.363281 -8.566406 6.9375 -7.578125 C 7.507812 -6.597656 8.289062 -5.820312 9.28125 -5.25 C 10.28125 -4.6875 11.382812 -4.40625 12.59375 -4.40625 C 13.957031 -4.40625 15.164062 -4.753906 16.21875 -5.453125 C 17.269531 -6.160156 18.050781 -7.085938 18.5625 -8.234375 L 12.5625 -8.234375 Z M 12.5625 -11.984375 "/></g></g></g><g fill="#004aad" fill-opacity="1"><g transform="translate(66.489772, 35.003869)"><g><path d="M 12.5625 0.296875 C 11.007812 0.296875 9.554688 0.00390625 8.203125 -0.578125 C 6.859375 -1.160156 5.671875 -1.96875 4.640625 -3 C 3.609375 -4.03125 2.800781 -5.21875 2.21875 -6.5625 C 1.632812 -7.914062 1.34375 -9.367188 1.34375 -10.921875 C 1.34375 -12.472656 1.632812 -13.921875 2.21875 -15.265625 C 2.800781 -16.617188 3.609375 -17.8125 4.640625 -18.84375 C 5.671875 -19.875 6.859375 -20.679688 8.203125 -21.265625 C 9.554688 -21.847656 11.007812 -22.140625 12.5625 -22.140625 C 14.113281 -22.140625 15.566406 -21.847656 16.921875 -21.265625 C 18.285156 -20.679688 19.476562 -19.875 20.5 -18.84375 C 21.519531 -17.8125 22.316406 -16.617188 22.890625 -15.265625 C 23.472656 -13.921875 23.765625 -12.472656 23.765625 -10.921875 C 23.765625 -9.367188 23.472656 -7.914062 22.890625 -6.5625 C 22.316406 -5.21875 21.519531 -4.03125 20.5 -3 C 19.476562 -1.96875 18.285156 -1.160156 16.921875 -0.578125 C 15.566406 0.00390625 14.113281 0.296875 12.5625 0.296875 Z M 12.5625 -4.40625 C 13.800781 -4.40625 14.910156 -4.6875 15.890625 -5.25 C 16.867188 -5.820312 17.644531 -6.597656 18.21875 -7.578125 C 18.789062 -8.566406 19.078125 -9.679688 19.078125 -10.921875 C 19.078125 -12.160156 18.789062 -13.269531 18.21875 -14.25 C 17.644531 -15.238281 16.867188 -16.015625 15.890625 -16.578125 C 14.910156 -17.148438 13.800781 -17.4375 12.5625 -17.4375 C 11.34375 -17.4375 10.242188 -17.148438 9.265625 -16.578125 C 8.285156 -16.015625 7.507812 -15.238281 6.9375 -14.25 C 6.363281 -13.269531 6.078125 -12.160156 6.078125 -10.921875 C 6.078125 -9.679688 6.363281 -8.566406 6.9375 -7.578125 C 7.507812 -6.597656 8.285156 -5.820312 9.265625 -5.25 C 10.242188 -4.6875 11.34375 -4.40625 12.5625 -4.40625 Z M 12.5625 -4.40625 "/></g></g></g><g fill="#004aad" fill-opacity="1"><g transform="translate(92.574816, 35.003869)"><g/></g></g><g fill="#004aad" fill-opacity="1"><g transform="translate(102.243304, 35.003869)"><g><path d="M 21.1875 -21.84375 L 26.359375 -21.84375 L 26.359375 0 L 21.546875 0 L 21.546875 -13 L 15.625 0 L 12.84375 0 L 6.953125 -13.03125 L 6.953125 0 L 2.140625 0 L 2.140625 -21.84375 L 7.359375 -21.84375 L 14.234375 -6.734375 Z M 21.1875 -21.84375 "/></g></g></g><g fill="#004aad" fill-opacity="1"><g transform="translate(131.677187, 35.003869)"><g><path d="M 2.328125 0 L 2.328125 -21.84375 L 7.140625 -21.84375 L 7.140625 0 Z M 2.328125 0 "/></g></g></g><g fill="#004aad" fill-opacity="1"><g transform="translate(142.037282, 35.003869)"><g><path d="M 15.625 -21.84375 L 15.625 -17.578125 L 10.125 -17.578125 L 10.125 0 L 5.359375 0 L 5.359375 -17.578125 L -0.1875 -17.578125 L -0.1875 -21.84375 Z M 15.625 -21.84375 "/></g></g></g><g fill="#004aad" fill-opacity="1"><g transform="translate(158.403436, 35.003869)"><g><path d="M 13.546875 -9 L 19.65625 0 L 14.265625 0 L 8.890625 -8.453125 L 6.953125 -8.453125 L 6.953125 0 L 2.140625 0 L 2.140625 -21.84375 L 11.4375 -21.84375 C 12.695312 -21.84375 13.8125 -21.546875 14.78125 -20.953125 C 15.75 -20.359375 16.519531 -19.550781 17.09375 -18.53125 C 17.664062 -17.507812 17.953125 -16.378906 17.953125 -15.140625 C 17.953125 -13.660156 17.535156 -12.363281 16.703125 -11.25 C 15.878906 -10.132812 14.828125 -9.382812 13.546875 -9 Z M 10.703125 -12.421875 C 11.484375 -12.421875 12.117188 -12.660156 12.609375 -13.140625 C 13.109375 -13.628906 13.359375 -14.25 13.359375 -15 C 13.359375 -15.75 13.109375 -16.363281 12.609375 -16.84375 C 12.117188 -17.332031 11.484375 -17.578125 10.703125 -17.578125 L 6.953125 -17.578125 L 6.953125 -12.421875 Z M 10.703125 -12.421875 "/></g></g></g><g fill="#004aad" fill-opacity="1"><g transform="translate(178.81003, 35.003869)"><g><path d="M 15.515625 0 L 14.15625 -4.109375 L 6 -4.109375 L 4.65625 0 L -0.46875 0 L 7.390625 -21.84375 L 12.78125 -21.84375 L 20.640625 0 Z M 7.28125 -8.125 L 12.890625 -8.125 L 10.078125 -16.78125 Z M 7.28125 -8.125 "/></g></g></g><g fill="#004aad" fill-opacity="1"><g transform="translate(199.90823, 35.003869)"><g/></g></g><g clip-path="url(#aba201f5e8)"><g fill="#004aad" fill-opacity="1"><g transform="translate(209.576719, 35.003869)"><g><path d="M 9.28125 -13.0625 C 10.570312 -13.09375 11.722656 -12.867188 12.734375 -12.390625 C 13.753906 -11.921875 14.566406 -11.21875 15.171875 -10.28125 C 15.785156 -9.351562 16.09375 -8.195312 16.09375 -6.8125 C 16.09375 -5.5 15.765625 -4.304688 15.109375 -3.234375 C 14.453125 -2.171875 13.570312 -1.316406 12.46875 -0.671875 C 11.363281 -0.0234375 10.109375 0.296875 8.703125 0.296875 C 7.390625 0.296875 6.1875 0.0078125 5.09375 -0.5625 C 4 -1.132812 3.125 -1.894531 2.46875 -2.84375 C 1.820312 -3.789062 1.5 -4.859375 1.5 -6.046875 L 6.109375 -6.109375 C 6.109375 -5.535156 6.367188 -5.050781 6.890625 -4.65625 C 7.421875 -4.269531 8.023438 -4.078125 8.703125 -4.078125 C 9.546875 -4.078125 10.222656 -4.347656 10.734375 -4.890625 C 11.242188 -5.441406 11.5 -6.128906 11.5 -6.953125 C 11.5 -7.804688 11.242188 -8.476562 10.734375 -8.96875 C 10.222656 -9.46875 9.570312 -9.71875 8.78125 -9.71875 L 2.25 -9.71875 L 8.375 -17.734375 L 1.5 -17.734375 L 1.5 -21.84375 L 16.28125 -21.84375 Z M 9.28125 -13.0625 "/></g></g></g></g></svg>