<svg xmlns="http://www.w3.org/2000/svg" xmlns:xlink="http://www.w3.org/1999/xlink" width="150" zoomAndPan="magnify" viewBox="0 0 112.5 112.499997" height="150" preserveAspectRatio="xMidYMid meet" version="1.0"><defs><g/></defs><g fill="#004aad" fill-opacity="1"><g transform="translate(0.0000015, 47.234286)"><g><path d="M 6.3125 -3.875 L 12.890625 -3.875 L 12.890625 0 L 1.953125 0 L 1.953125 -19.84375 L 6.3125 -19.84375 Z M 6.3125 -3.875 "/></g></g></g><g fill="#004aad" fill-opacity="1"><g transform="translate(13.806845, 47.234286)"><g><path d="M 11.40625 0.265625 C 10 0.265625 8.679688 0 7.453125 -0.53125 C 6.234375 -1.0625 5.15625 -1.796875 4.21875 -2.734375 C 3.28125 -3.671875 2.546875 -4.75 2.015625 -5.96875 C 1.484375 -7.1875 1.21875 -8.503906 1.21875 -9.921875 C 1.21875 -11.328125 1.484375 -12.640625 2.015625 -13.859375 C 2.546875 -15.085938 3.28125 -16.171875 4.21875 -17.109375 C 5.15625 -18.046875 6.234375 -18.78125 7.453125 -19.3125 C 8.679688 -19.84375 10 -20.109375 11.40625 -20.109375 C 12.820312 -20.109375 14.144531 -19.84375 15.375 -19.3125 C 16.613281 -18.78125 17.691406 -18.046875 18.609375 -17.109375 C 19.535156 -16.171875 20.265625 -15.085938 20.796875 -13.859375 C 21.328125 -12.640625 21.59375 -11.328125 21.59375 -9.921875 C 21.59375 -8.503906 21.328125 -7.1875 20.796875 -5.96875 C 20.265625 -4.75 19.535156 -3.671875 18.609375 -2.734375 C 17.691406 -1.796875 16.613281 -1.0625 15.375 -0.53125 C 14.144531 0 12.820312 0.265625 11.40625 0.265625 Z M 11.40625 -4 C 12.53125 -4 13.535156 -4.257812 14.421875 -4.78125 C 15.316406 -5.300781 16.023438 -6.003906 16.546875 -6.890625 C 17.066406 -7.785156 17.328125 -8.796875 17.328125 -9.921875 C 17.328125 -11.046875 17.066406 -12.050781 16.546875 -12.9375 C 16.023438 -13.832031 15.316406 -14.539062 14.421875 -15.0625 C 13.535156 -15.582031 12.53125 -15.84375 11.40625 -15.84375 C 10.300781 -15.84375 9.300781 -15.582031 8.40625 -15.0625 C 7.519531 -14.539062 6.816406 -13.832031 6.296875 -12.9375 C 5.773438 -12.050781 5.515625 -11.046875 5.515625 -9.921875 C 5.515625 -8.796875 5.773438 -7.785156 6.296875 -6.890625 C 6.816406 -6.003906 7.519531 -5.300781 8.40625 -4.78125 C 9.300781 -4.257812 10.300781 -4 11.40625 -4 Z M 11.40625 -4 "/></g></g></g><g fill="#004aad" fill-opacity="1"><g transform="translate(37.498976, 47.234286)"><g><path d="M 11.40625 -10.875 L 21.625 -10.875 L 21.625 -9.921875 C 21.625 -8.503906 21.359375 -7.1875 20.828125 -5.96875 C 20.296875 -4.75 19.5625 -3.671875 18.625 -2.734375 C 17.695312 -1.796875 16.617188 -1.0625 15.390625 -0.53125 C 14.171875 0 12.851562 0.265625 11.4375 0.265625 C 10.03125 0.265625 8.707031 0 7.46875 -0.53125 C 6.238281 -1.0625 5.160156 -1.796875 4.234375 -2.734375 C 3.304688 -3.671875 2.578125 -4.75 2.046875 -5.96875 C 1.515625 -7.1875 1.25 -8.503906 1.25 -9.921875 C 1.25 -11.328125 1.515625 -12.640625 2.046875 -13.859375 C 2.578125 -15.085938 3.304688 -16.171875 4.234375 -17.109375 C 5.160156 -18.046875 6.238281 -18.78125 7.46875 -19.3125 C 8.707031 -19.84375 10.03125 -20.109375 11.4375 -20.109375 C 13.40625 -20.109375 15.1875 -19.601562 16.78125 -18.59375 C 18.375 -17.59375 19.601562 -16.28125 20.46875 -14.65625 L 16.703125 -12.703125 C 16.210938 -13.648438 15.503906 -14.410156 14.578125 -14.984375 C 13.648438 -15.554688 12.601562 -15.84375 11.4375 -15.84375 C 10.332031 -15.84375 9.328125 -15.582031 8.421875 -15.0625 C 7.523438 -14.539062 6.816406 -13.832031 6.296875 -12.9375 C 5.773438 -12.050781 5.515625 -11.046875 5.515625 -9.921875 C 5.515625 -8.796875 5.773438 -7.785156 6.296875 -6.890625 C 6.816406 -6.003906 7.523438 -5.300781 8.421875 -4.78125 C 9.328125 -4.257812 10.332031 -4 11.4375 -4 C 12.675781 -4 13.773438 -4.316406 14.734375 -4.953125 C 15.691406 -5.597656 16.398438 -6.4375 16.859375 -7.46875 L 11.40625 -7.46875 Z M 11.40625 -10.875 "/></g></g></g><g fill="#004aad" fill-opacity="1"><g transform="translate(61.224169, 47.234286)"><g><path d="M 11.40625 0.265625 C 10 0.265625 8.679688 0 7.453125 -0.53125 C 6.234375 -1.0625 5.15625 -1.796875 4.21875 -2.734375 C 3.28125 -3.671875 2.546875 -4.75 2.015625 -5.96875 C 1.484375 -7.1875 1.21875 -8.503906 1.21875 -9.921875 C 1.21875 -11.328125 1.484375 -12.640625 2.015625 -13.859375 C 2.546875 -15.085938 3.28125 -16.171875 4.21875 -17.109375 C 5.15625 -18.046875 6.234375 -18.78125 7.453125 -19.3125 C 8.679688 -19.84375 10 -20.109375 11.40625 -20.109375 C 12.820312 -20.109375 14.144531 -19.84375 15.375 -19.3125 C 16.613281 -18.78125 17.691406 -18.046875 18.609375 -17.109375 C 19.535156 -16.171875 20.265625 -15.085938 20.796875 -13.859375 C 21.328125 -12.640625 21.59375 -11.328125 21.59375 -9.921875 C 21.59375 -8.503906 21.328125 -7.1875 20.796875 -5.96875 C 20.265625 -4.75 19.535156 -3.671875 18.609375 -2.734375 C 17.691406 -1.796875 16.613281 -1.0625 15.375 -0.53125 C 14.144531 0 12.820312 0.265625 11.40625 0.265625 Z M 11.40625 -4 C 12.53125 -4 13.535156 -4.257812 14.421875 -4.78125 C 15.316406 -5.300781 16.023438 -6.003906 16.546875 -6.890625 C 17.066406 -7.785156 17.328125 -8.796875 17.328125 -9.921875 C 17.328125 -11.046875 17.066406 -12.050781 16.546875 -12.9375 C 16.023438 -13.832031 15.316406 -14.539062 14.421875 -15.0625 C 13.535156 -15.582031 12.53125 -15.84375 11.40625 -15.84375 C 10.300781 -15.84375 9.300781 -15.582031 8.40625 -15.0625 C 7.519531 -14.539062 6.816406 -13.832031 6.296875 -12.9375 C 5.773438 -12.050781 5.515625 -11.046875 5.515625 -9.921875 C 5.515625 -8.796875 5.773438 -7.785156 6.296875 -6.890625 C 6.816406 -6.003906 7.519531 -5.300781 8.40625 -4.78125 C 9.300781 -4.257812 10.300781 -4 11.40625 -4 Z M 11.40625 -4 "/></g></g></g><g fill="#004aad" fill-opacity="1"><g transform="translate(0.0000015, 73.786943)"><g><path d="M 19.25 -19.84375 L 23.9375 -19.84375 L 23.9375 0 L 19.578125 0 L 19.578125 -11.8125 L 14.1875 0 L 11.671875 0 L 6.3125 -11.84375 L 6.3125 0 L 1.953125 0 L 1.953125 -19.84375 L 6.671875 -19.84375 L 12.921875 -6.125 Z M 19.25 -19.84375 "/></g></g></g><g fill="#004aad" fill-opacity="1"><g transform="translate(26.733761, 73.786943)"><g><path d="M 2.109375 0 L 2.109375 -19.84375 L 6.484375 -19.84375 L 6.484375 0 Z M 2.109375 0 "/></g></g></g><g fill="#004aad" fill-opacity="1"><g transform="translate(36.143468, 73.786943)"><g><path d="M 14.1875 -19.84375 L 14.1875 -15.96875 L 9.1875 -15.96875 L 9.1875 0 L 4.859375 0 L 4.859375 -15.96875 L -0.171875 -15.96875 L -0.171875 -19.84375 Z M 14.1875 -19.84375 "/></g></g></g><g fill="#004aad" fill-opacity="1"><g transform="translate(51.008267, 73.786943)"><g><path d="M 12.296875 -8.171875 L 17.859375 0 L 12.96875 0 L 8.0625 -7.671875 L 6.3125 -7.671875 L 6.3125 0 L 1.953125 0 L 1.953125 -19.84375 L 10.390625 -19.84375 C 11.535156 -19.84375 12.546875 -19.570312 13.421875 -19.03125 C 14.304688 -18.488281 15.003906 -17.753906 15.515625 -16.828125 C 16.035156 -15.898438 16.296875 -14.875 16.296875 -13.75 C 16.296875 -12.40625 15.921875 -11.226562 15.171875 -10.21875 C 14.421875 -9.207031 13.460938 -8.523438 12.296875 -8.171875 Z M 9.71875 -11.28125 C 10.425781 -11.28125 11.003906 -11.5 11.453125 -11.9375 C 11.910156 -12.375 12.140625 -12.9375 12.140625 -13.625 C 12.140625 -14.3125 11.910156 -14.875 11.453125 -15.3125 C 11.003906 -15.75 10.425781 -15.96875 9.71875 -15.96875 L 6.3125 -15.96875 L 6.3125 -11.28125 Z M 9.71875 -11.28125 "/></g></g></g><g fill="#004aad" fill-opacity="1"><g transform="translate(69.542856, 73.786943)"><g><path d="M 14.09375 0 L 12.859375 -3.734375 L 5.453125 -3.734375 L 4.234375 0 L -0.4375 0 L 6.71875 -19.84375 L 11.609375 -19.84375 L 18.75 0 Z M 6.609375 -7.375 L 11.703125 -7.375 L 9.15625 -15.25 Z M 6.609375 -7.375 "/></g></g></g><g fill="#004aad" fill-opacity="1"><g transform="translate(88.705613, 73.786943)"><g/></g></g><g fill="#004aad" fill-opacity="1"><g transform="translate(97.487162, 73.786943)"><g><path d="M 7.203125 -3.734375 L 14.09375 -3.734375 L 14.09375 0 L -0.46875 0 L 7.3125 -9.953125 C 8.007812 -10.835938 8.519531 -11.523438 8.84375 -12.015625 C 9.164062 -12.515625 9.375 -12.910156 9.46875 -13.203125 C 9.570312 -13.503906 9.625 -13.800781 9.625 -14.09375 C 9.625 -14.988281 9.382812 -15.59375 8.90625 -15.90625 C 8.4375 -16.21875 7.945312 -16.375 7.4375 -16.375 C 6.78125 -16.375 6.234375 -16.144531 5.796875 -15.6875 C 5.367188 -15.238281 5.203125 -14.628906 5.296875 -13.859375 L 1.1875 -13.859375 C 1.082031 -15.085938 1.320312 -16.175781 1.90625 -17.125 C 2.488281 -18.070312 3.289062 -18.8125 4.3125 -19.34375 C 5.34375 -19.875 6.453125 -20.140625 7.640625 -20.140625 C 8.785156 -20.140625 9.816406 -19.894531 10.734375 -19.40625 C 11.648438 -18.925781 12.375 -18.257812 12.90625 -17.40625 C 13.445312 -16.5625 13.71875 -15.585938 13.71875 -14.484375 C 13.71875 -13.710938 13.613281 -13.007812 13.40625 -12.375 C 13.195312 -11.75 12.847656 -11.070312 12.359375 -10.34375 C 11.878906 -9.625 11.195312 -8.710938 10.3125 -7.609375 Z M 7.203125 -3.734375 "/></g></g></g></svg>